<svg width="39" height="22" viewBox="0 0 39 22" fill="none" xmlns="http://www.w3.org/2000/svg">
<g clip-path="url(#clip0_221_2571)">
<path d="M27.639 0.446575C27.3507 1.39377 27.0805 2.26948 26.8102 3.12732C26.0355 5.59361 25.2247 8.0599 24.522 10.5441C24.1977 11.6878 23.3328 11.1338 22.6842 11.2589C22.0536 11.384 21.8914 10.9908 21.7473 10.4547C21.0986 7.89905 20.432 5.34341 19.6932 2.51969C19.3689 3.73496 19.1167 4.68216 18.8644 5.6651C18.45 7.30929 18.0176 8.95348 17.6212 10.5977C17.4951 11.0981 17.2608 11.2947 16.7564 11.2589C16.36 11.2411 15.9636 11.2947 15.5852 11.2232C15.369 11.1874 15.0807 10.9908 15.0267 10.8121C13.9456 7.38077 12.9006 3.94942 11.8375 0.535933C13.351 -0.0180883 13.8195 0.214243 14.1978 1.60823C14.8825 4.07452 15.5672 6.50506 16.396 8.93561C16.8645 7.13057 17.3329 5.34341 17.7834 3.53837C17.9996 2.73415 18.2518 1.92992 18.3779 1.1257C18.5221 0.249986 19.1167 0.375088 19.7113 0.357216C20.3599 0.339345 20.8464 0.375088 21.0265 1.17931C21.5851 3.5205 22.2157 5.84381 22.8283 8.185C22.9004 8.4352 22.9725 8.68541 23.0986 9.11432C23.2788 8.63179 23.4049 8.3101 23.495 7.98841C24.0535 5.95104 24.6301 3.93155 25.1706 1.89418C25.6751 0.1785 25.6751 0.160628 27.639 0.446575Z" fill="#3E4B00"></path>
<path d="M19.8915 21.9997C12.3421 21.9104 6.08993 19.7479 0.576517 15.4766C0.5585 15.4587 0.522464 15.4408 0.504446 15.423C0.32427 15.137 0.16211 14.869 -0.0180664 14.583C0.306252 14.6188 0.648588 14.6009 0.936871 14.726C3.02692 15.6374 5.02689 16.7455 7.15297 17.514C12.8826 19.5871 18.8104 20.1053 24.8644 19.319C28.0895 18.8901 31.2066 18.1037 34.2336 16.8885C34.5038 16.7812 34.8642 16.9242 35.1885 16.9599C35.0083 17.2638 34.9182 17.6748 34.666 17.8356C31.0985 20.0517 27.1886 21.2849 23.0085 21.7674C21.8013 21.9104 20.5581 21.9461 19.8915 21.9997Z" fill="#3E4B00"></path>
<path d="M8.54036 10.0972C7.47732 11.098 6.19806 11.6878 4.66656 11.5806C2.99091 11.4734 1.80175 10.4725 1.60355 8.97132C1.35131 7.11267 2.12607 5.57571 3.81973 5.2004C5.08097 4.93233 6.41427 5.05743 7.72957 5.02168C7.9638 5.02168 8.19803 5.09317 8.41424 5.12891C9.00882 2.6805 7.7656 1.25077 5.33321 1.66181C4.39629 1.82266 3.49541 2.14435 2.55849 2.39455C2.12607 1.42948 2.27021 0.929077 3.26118 0.571644C4.66656 0.0712375 6.08996 -0.143222 7.58542 0.142724C9.31512 0.482285 10.3421 1.46523 10.4502 3.19878C10.5764 4.91445 10.5043 6.648 10.5223 8.36368C10.5403 9.00706 10.4863 9.68618 11.1709 10.1151C11.279 10.1866 11.261 10.6334 11.1529 10.7764C10.7746 11.2053 10.2881 11.6521 9.67548 11.2768C9.27909 11.0087 8.97279 10.544 8.54036 10.0972ZM6.52238 6.25483C6.52238 6.23696 6.52238 6.21909 6.52238 6.20121C6.05392 6.2727 5.56744 6.29057 5.117 6.41567C3.99991 6.70162 3.47739 7.52372 3.63955 8.61389C3.78369 9.54321 4.57647 10.133 5.67555 10.0972C6.6485 10.0615 7.60344 9.75767 8.08992 8.93558C8.45027 8.32794 8.50433 7.48797 8.46829 6.75523C8.45027 6.57652 7.56741 6.41567 7.08093 6.29057C6.90075 6.21909 6.70256 6.25483 6.52238 6.25483Z" fill="#3E4B00"></path>
<path d="M28.7381 9.22183C29.1705 9.38267 29.5669 9.59713 29.9993 9.66862C31.0804 9.81159 32.1795 9.97244 33.2605 9.93669C34.0533 9.91882 34.6659 9.38267 34.738 8.50696C34.8101 7.68487 34.2335 7.25595 33.5668 7.00574C32.684 6.66618 31.7471 6.41598 30.8462 6.05855C29.4048 5.50452 28.666 4.48584 28.7201 3.18121C28.7561 1.82296 29.5849 0.80428 31.0083 0.303874C32.3777 -0.160789 33.729 -0.0356876 35.0803 0.339617C36.2335 0.661307 36.3416 0.893638 36.0533 2.21614C35.4047 2.03742 34.774 1.76935 34.1074 1.69786C33.3506 1.62638 32.5218 1.6085 31.8191 1.82296C31.3867 1.94807 30.9723 2.53783 30.8101 3.00249C30.5939 3.59226 31.0083 4.09266 31.6029 4.34287C32.7741 4.80753 33.9632 5.20071 35.1164 5.70111C36.1254 6.1479 36.7019 6.93426 36.738 8.07804C36.774 9.31119 36.3416 10.2941 35.2425 10.9196C34.8101 11.1698 34.3056 11.4379 33.8191 11.4379C32.4858 11.4379 31.1345 11.4379 29.8192 11.2235C28.5399 10.9732 28.4498 10.6694 28.7381 9.22183Z" fill="#3E4B00"></path>
<path d="M35.9633 20.0883C36.1615 19.4628 36.3777 18.8372 36.5759 18.1939C37.3867 15.6918 37.0984 15.2987 34.4498 15.4595C33.8192 15.4952 33.2066 15.6025 32.5759 15.6382C32.3057 15.6561 32.0354 15.6203 31.7471 15.6025C31.7291 15.531 31.6931 15.4595 31.675 15.388C31.8913 15.2093 32.0714 14.977 32.3057 14.8519C33.9993 14.0298 35.7651 13.726 37.6389 14.0655C38.2695 14.1727 38.7019 14.4944 38.72 15.1736C38.774 17.0143 38.1975 18.6228 36.8101 19.8917C36.6299 20.0525 36.3777 20.124 36.1615 20.2312C36.0894 20.1955 36.0353 20.1419 35.9633 20.0883Z" fill="#3E4B00"></path>
</g>
<defs>
<clipPath id="clip0_221_2571">
<rect width="38.72" height="22" fill="white"></rect>
</clipPath>
</defs>
</svg>