<svg width="35" height="25" viewBox="0 0 35 25" fill="none" xmlns="http://www.w3.org/2000/svg">
<g clip-path="url(#clip0_221_2577)">
<path d="M2.38266 12.0502C2.38266 10.9184 2.41552 9.90307 2.36623 8.88776C2.34979 8.22198 2.59627 8.0056 3.23712 8.02224C4.22303 8.05553 5.19252 8.03889 6.30989 8.03889C6.30989 6.97364 6.34275 5.95833 6.29346 4.94302C6.26059 4.26059 6.5235 4.01093 7.21364 4.02757C9.23477 4.06086 11.2723 4.04421 13.2935 4.04421C13.5564 4.04421 13.8193 4.04421 14.1972 4.04421C14.1972 2.94568 14.2136 1.93037 14.1972 0.915054C14.1808 0.282564 14.4108 -0.000392268 15.0517 0.0328967C16.1526 0.0661856 17.2371 0.0828301 18.3381 0.0328967C19.0282 -0.000392268 19.2418 0.282564 19.2254 0.964987C19.1925 3.29521 19.2089 5.62544 19.2089 8.07218C20.2277 8.07218 21.1972 8.10547 22.1667 8.05553C22.9061 8.02224 23.1526 8.3052 23.1197 9.02091C23.0869 9.98629 23.1033 10.9517 23.1033 12.0502C23.8099 12.0502 24.4836 12.0835 25.1573 12.0336C25.6667 12.0003 25.6338 11.684 25.5517 11.2513C25.2066 9.47031 25.5352 7.83916 26.6526 6.39109C27.0634 5.85846 27.5399 5.67537 28.0165 6.208C28.7559 7.02358 29.4132 7.92238 30.0705 8.72131C31.4179 8.92105 32.8639 9.13742 34.3099 9.3538C34.9672 9.45367 35.0986 9.8032 34.885 10.419C34.0634 12.7326 32.4531 13.931 30.0376 13.8645C29.3474 13.8478 29.0517 14.0808 28.7395 14.6634C26.2747 19.5236 22.6104 22.9856 17.2864 24.3838C14.1808 25.1993 11.0587 25.2326 7.93665 24.467C3.18782 23.3019 0.279372 19.74 0.0164615 14.7965C2.95798e-05 14.1474 0.0328934 13.4983 2.95795e-05 12.8658C-0.0328343 12.2499 0.26294 12.0169 0.838058 12.0336C1.29815 12.0669 1.77468 12.0502 2.38266 12.0502ZM33.5705 10.419C32.3216 9.91971 31.0728 9.83649 29.9226 10.186C29.0845 10.4357 28.9038 10.3192 28.8052 9.45367C28.6902 8.53822 28.3122 7.80587 27.5399 7.27324C26.6855 8.40507 26.3897 9.83649 26.7348 11.0848C27.0634 12.2832 26.9155 12.6161 25.7489 13.0156C25.3381 13.1487 24.8944 13.182 24.4672 13.182C17.0564 13.1987 9.62914 13.1987 2.21834 13.1987C1.90613 13.1987 1.57749 13.1987 1.26529 13.1987C0.985945 15.0462 1.61036 17.9257 2.56341 19.2406C2.72773 19.457 3.03994 19.6068 3.30285 19.6734C5.11036 20.0562 6.88501 19.9064 8.64322 19.3738C8.98829 19.2739 9.41552 19.1241 9.48125 19.6567C9.49768 19.8398 9.15261 20.2226 8.92256 20.2726C7.54228 20.5222 6.12914 20.722 4.73242 20.9217C4.48594 20.955 4.23947 20.9217 3.7958 20.9217C4.17374 21.2213 4.37092 21.4044 4.58454 21.5542C7.82163 23.8844 11.4859 24.0675 15.1996 23.5349C21.1643 22.686 25.2066 19.1408 27.8686 13.8312C28.3287 12.9157 28.8052 12.5828 29.8075 12.6827C31.6479 12.8491 32.831 12.0835 33.5705 10.419ZM15.3474 5.17604C15.3474 6.17471 15.3474 7.05686 15.3474 7.95567C16.2841 7.95567 17.1714 7.95567 18.0587 7.95567C18.0587 6.99029 18.0587 6.10813 18.0587 5.17604C17.1385 5.17604 16.2676 5.17604 15.3474 5.17604ZM6.26059 11.9836C6.26059 11.0016 6.26059 10.1028 6.26059 9.17071C5.30754 9.17071 4.43665 9.17071 3.51646 9.17071C3.51646 10.1361 3.51646 11.0349 3.51646 11.9836C4.43665 11.9836 5.32397 11.9836 6.26059 11.9836ZM10.2043 9.204C9.21834 9.204 8.34745 9.204 7.47656 9.204C7.47656 10.1694 7.47656 11.0682 7.47656 11.9836C8.41317 11.9836 9.3005 11.9836 10.2043 11.9836C10.2043 11.0182 10.2043 10.1194 10.2043 9.204ZM14.1315 12.0003C14.1315 11.0016 14.1315 10.1028 14.1315 9.17071C13.1949 9.17071 12.3075 9.17071 11.4038 9.17071C11.4038 10.1527 11.4038 11.0682 11.4038 12.0003C12.3404 12.0003 13.1949 12.0003 14.1315 12.0003ZM21.9859 11.9836C21.9859 11.0182 21.9859 10.1028 21.9859 9.18736C21.0329 9.18736 20.162 9.18736 19.2747 9.18736C19.2747 10.1527 19.2747 11.0515 19.2747 11.9836C20.1949 11.9836 21.0822 11.9836 21.9859 11.9836ZM15.3146 11.967C16.3005 11.967 17.1714 11.967 18.0423 11.967C18.0423 11.0016 18.0423 10.1028 18.0423 9.204C17.1057 9.204 16.2183 9.204 15.3146 9.204C15.3146 10.1527 15.3146 11.0349 15.3146 11.967ZM18.0423 3.99428C18.0423 2.99561 18.0423 2.06352 18.0423 1.18137C17.0892 1.18137 16.2019 1.18137 15.331 1.18137C15.331 2.16339 15.331 3.06219 15.331 3.99428C16.2512 3.99428 17.1221 3.99428 18.0423 3.99428ZM7.44369 5.19268C7.44369 6.14142 7.44369 7.04022 7.44369 7.97231C8.36388 7.97231 9.2512 7.97231 10.155 7.97231C10.155 7.00693 10.155 6.09149 10.155 5.19268C9.21834 5.19268 8.34745 5.19268 7.44369 5.19268ZM14.1972 5.20933C13.162 5.20933 12.2747 5.20933 11.3874 5.20933C11.3874 6.17471 11.3874 7.05686 11.3874 7.98896C12.3404 7.98896 13.2113 7.98896 14.1479 7.98896C14.1643 7.706 14.1972 7.47298 14.1972 7.22331C14.1972 6.55753 14.1972 5.9084 14.1972 5.20933Z" fill="#273000"></path>
<path d="M10.9437 17.6924C11.1409 17.9587 11.5353 18.2583 11.486 18.4914C11.4367 18.791 11.0588 19.0406 10.8123 19.3236C10.5658 19.0906 10.1221 18.8742 10.1057 18.6079C10.0728 18.3083 10.4179 17.992 10.5987 17.6758C10.7137 17.6924 10.8287 17.6924 10.9437 17.6924Z" fill="#273000"></path>
</g>
<defs>
<clipPath id="clip0_221_2577">
<rect width="35" height="25" fill="white"></rect>
</clipPath>
</defs>
</svg>