<svg width="23" height="25" viewBox="0 0 23 25" fill="none" xmlns="http://www.w3.org/2000/svg">
<path d="M17.2539 13.4316C17.7783 13.1977 18.249 13.2133 18.7734 13.4395C19.9227 13.9465 21.0874 14.4304 22.2598 14.8984C22.7686 15.1012 22.9997 15.4601 22.9844 16.0059C22.9767 16.4114 22.9844 16.8174 22.9844 17.3867C23.0692 18.7517 22.8684 20.2258 22.1357 21.5986C21.3722 23.0339 20.2461 24.0714 18.8115 24.7891C18.2331 25.0776 17.6782 25.062 17.1152 24.7578C14.5778 23.385 13.1896 21.2482 13.043 18.3311C13.0044 17.5432 13.0352 16.7468 13.0352 15.9512C13.0353 15.46 13.2357 15.1246 13.7061 14.9297C14.8938 14.4461 16.0816 13.9542 17.2539 13.4316ZM12.9658 0C13.683 8.12204e-05 14.2772 0.242129 14.7861 0.772461C16.0818 2.11399 17.3931 3.43186 18.7119 4.74219C19.2286 5.2569 19.4832 5.8422 19.4756 6.58301C19.4524 8.23667 19.4677 9.88344 19.46 11.5371C19.46 11.8099 19.4904 12.1375 19.0977 12.1377C18.6196 12.1377 18.38 11.8956 18.3799 11.4824C18.3876 9.91456 18.3877 8.35391 18.3877 6.73145H15.3105C13.8143 6.73925 13.0429 5.97509 13.0352 4.46973C13.0274 3.39328 13.0351 2.30887 13.0273 1.23242C13.0273 1.20903 13.0115 1.18542 12.9961 1.12305C12.9113 1.11524 12.8111 1.09961 12.7109 1.09961C9.43294 1.09961 6.15495 1.09962 2.87695 1.10742C1.64297 1.11522 1.08016 1.68479 1.08008 2.95605V21.1309C1.08008 22.1838 1.71983 22.8231 2.76855 22.8232H12.7188C13.058 22.8233 13.5439 23.1823 13.5674 23.5098C13.5751 23.6268 13.436 23.8146 13.3203 23.877C13.1661 23.9471 12.9732 23.9316 12.7881 23.9316H2.7998C1.09524 23.9238 0 22.8079 0 21.0918V2.76172C0 1.42018 0.732619 0.421467 1.94336 0.101562C2.19011 0.0391773 2.45257 2.16446e-05 2.70703 0H12.9658ZM18.2412 14.4463C18.0947 14.3839 17.879 14.3918 17.7324 14.4541C16.5986 14.9065 15.4795 15.3904 14.3457 15.8506C14.1455 15.9286 14.0763 16.0454 14.084 16.2637C14.1148 16.6537 14.0996 17.0593 14.0996 17.4648C14.1073 17.7613 14.092 18.0659 14.1074 18.3623C14.2387 20.8738 15.4727 22.6522 17.6631 23.7832C17.8328 23.8688 18.1028 23.8924 18.2646 23.8145C19.8919 23.0344 21.033 21.8018 21.6191 20.0547C22.0511 18.7598 21.8743 17.4335 21.8975 16.1152C21.8973 16.0295 21.7584 15.9053 21.6582 15.8662C20.5244 15.3826 19.3827 14.9065 18.2412 14.4463ZM19.3906 17.543C19.6297 17.3247 19.8839 17.309 20.1152 17.5273C20.3389 17.738 20.3236 18.0033 20.123 18.2295C19.7528 18.6429 19.3593 19.0407 18.9736 19.4385C18.6576 19.7659 18.3493 20.0934 18.0332 20.4131C17.7247 20.7251 17.4157 20.7329 17.0918 20.4287C16.7371 20.0934 16.3823 19.7503 16.043 19.3916C15.7808 19.1264 15.7725 18.8141 15.9961 18.6035C16.1965 18.4086 16.5129 18.4323 16.752 18.6738C16.9988 18.9234 17.2388 19.1966 17.4316 19.4072C18.0253 18.838 18.5726 18.331 19.1123 17.8164C19.2049 17.7306 19.2981 17.6288 19.3906 17.543ZM9.47949 15.8193C9.86492 15.8194 10.0734 15.9908 10.0889 16.3105C10.1043 16.638 9.89574 16.8329 9.47949 16.8408C8.65421 16.8486 7.83603 16.8408 7.01074 16.8408V16.8564H4.58105C4.16484 16.8563 3.94925 16.6771 3.94922 16.3418C3.95693 16.0143 4.18022 15.8195 4.58105 15.8193H9.47949ZM12.5488 11.8486C12.9807 11.8486 13.2352 12.0748 13.2275 12.418C13.2198 12.7534 12.9809 12.9482 12.5566 12.9482C11.2223 12.956 9.88793 12.9561 8.5459 12.9561H4.6123C4.14187 12.956 3.92568 12.7768 3.91797 12.418C3.91801 12.0671 4.165 11.8565 4.60449 11.8564C7.24998 11.8486 9.89563 11.8486 12.5488 11.8486ZM12.5332 7.9248C12.9883 7.9248 13.2275 8.12065 13.2275 8.46387C13.2273 8.8223 12.973 9.0331 12.5029 9.0332H4.6123C4.16495 9.0332 3.92578 8.82953 3.92578 8.47852C3.92599 8.12001 4.15736 7.92481 4.60449 7.9248H12.5332ZM14.1074 1.77051C14.1074 2.75318 14.0988 3.72823 14.1143 4.69531C14.122 5.18673 14.408 5.58499 14.8477 5.60059C15.8657 5.63957 16.8837 5.61621 17.9326 5.61621C16.6446 4.32141 15.3877 3.05751 14.1074 1.77051Z" fill="#21002C"></path>
</svg>