<svg width="24" height="25" viewBox="0 0 24 25" fill="none" xmlns="http://www.w3.org/2000/svg">
<g clip-path="url(#clip0_213_2179)">
<path d="M20.3233 20.4596C20.7852 20.4596 21.1732 20.367 21.4503 20.4782C21.7275 20.5894 22.0231 20.9044 22.097 21.2009C22.1339 21.3492 21.7275 21.6272 21.4688 21.8125C21.358 21.8866 21.1732 21.831 21.0069 21.831C14.9838 21.831 8.94225 21.8496 2.91915 21.831C2.56811 21.831 2.1986 21.5345 1.84756 21.3862C1.97689 21.1083 2.08774 20.8117 2.2725 20.5523C2.32793 20.4596 2.56811 20.4782 2.71592 20.4782C2.99306 20.4596 3.27019 20.4782 3.63971 20.4782C3.63971 16.4381 3.63971 12.4537 3.63971 8.45074C3.01153 8.04303 1.75518 8.93258 1.62585 7.45C1.49652 7.45 1.36719 7.5056 1.27481 7.46853C0.960723 7.32027 0.443402 7.17202 0.387975 6.94963C0.332548 6.67165 0.609684 6.17127 0.868345 6.02302C4.23093 4.0586 7.63047 2.18684 10.9931 0.27802C11.6951 -0.111157 12.2864 -0.0555606 12.97 0.333617C16.2586 2.18684 19.5843 4.003 22.8914 5.83769C23.3349 6.07861 24.0369 6.28247 23.7228 6.9311C23.5566 7.28321 22.9284 7.43147 22.2817 7.78358C22.2633 8.85845 21.0254 8.11716 20.3233 8.46927C20.3233 12.4352 20.3233 16.4011 20.3233 20.4596ZM13.7644 20.4226C13.7644 19.4589 13.7644 18.5693 13.7644 17.6798C13.7644 15.3262 13.7644 12.9911 13.8014 10.6375C13.8014 9.89626 14.3372 9.45148 14.8175 9.78506C15.0762 9.97038 15.224 10.4522 15.224 10.8043C15.261 13.6398 15.2425 16.4937 15.261 19.3292C15.261 19.6813 15.2979 20.0519 15.3164 20.3855C16.5358 20.3855 17.6628 20.3855 18.7713 20.3855C18.7713 16.3269 18.7713 12.3796 18.7713 8.39514C14.2078 8.39514 9.73671 8.39514 5.26557 8.39514C5.26557 12.4352 5.26557 16.4011 5.26557 20.3855C6.44802 20.3855 7.55657 20.3855 8.73901 20.3855C8.73901 19.9037 8.73901 19.5145 8.73901 19.1068C8.73901 16.3269 8.73901 13.5471 8.73901 10.7673C8.73901 10.2298 8.81292 9.72947 9.47804 9.71093C10.1616 9.6924 10.2171 10.2113 10.2171 10.7487C10.2171 13.5656 10.2171 16.364 10.2171 19.1809C10.2171 19.5701 10.2171 19.9593 10.2171 20.404C11.381 20.4226 12.4711 20.4226 13.7644 20.4226ZM21.2286 6.80137C21.2471 6.74577 21.2656 6.69018 21.2841 6.63458C21.0623 6.50485 20.8222 6.3566 20.6004 6.22687C17.9769 4.78136 15.3164 3.33584 12.7113 1.85326C12.1201 1.51968 11.6951 1.53821 11.1224 1.87179C8.49883 3.40997 5.83832 4.89255 3.17781 6.39366C3.01153 6.48632 2.8822 6.61605 2.58659 6.8199C8.92377 6.80137 15.0762 6.80137 21.2286 6.80137Z" fill="#5E563C"></path>
<path d="M12.0092 24.9815C8.35103 24.9815 4.67435 24.9815 1.01615 24.9629C0.702067 24.9629 0.351028 24.8517 0.110843 24.6849C-0.0184875 24.5923 -0.055439 24.129 0.0554155 24.0178C0.258649 23.7954 0.591212 23.5915 0.886824 23.5915C2.36488 23.5545 3.84294 23.573 5.321 23.573C11.0854 23.573 16.8314 23.5545 22.5958 23.5545C22.873 23.5545 23.1871 23.4804 23.4088 23.5915C23.6674 23.7213 24.0185 24.0548 24 24.2402C23.963 24.5182 23.6305 24.7961 23.3718 24.9629C23.1871 25.0741 22.8914 25 22.6513 25C19.1039 24.9629 15.5566 24.9629 12.0092 24.9815Z" fill="#5E563C"></path>
</g>
<defs>
<clipPath id="clip0_213_2179">
<rect width="24" height="25" fill="white"></rect>
</clipPath>
</defs>
</svg>