<svg width="22" height="25" viewBox="0 0 22 25" fill="none" xmlns="http://www.w3.org/2000/svg">
<path d="M21.1021 8.92908C21.1021 10.6325 21.224 12.347 21.08 14.0393C20.7808 17.3013 19.1854 19.9288 16.5818 21.8215C15.0196 22.9571 13.258 23.7921 11.574 24.7384C11.0532 25.0279 10.466 25.0947 9.91208 24.8498C7.15335 23.6362 4.52757 22.2334 2.56654 19.8398C0.882496 17.7912 0.0515524 15.4087 0.0183147 12.7701C-0.0149231 10.0201 0.00723543 7.28135 0.00723543 4.53142C0.00723543 3.74095 0.262058 3.41808 1.03761 3.17315C4.01792 2.24908 7.05364 1.40295 9.94532 0.111482C10.2999 -0.0443844 10.8538 -0.033251 11.2194 0.122616C14.1554 1.40295 17.2244 2.27135 20.2712 3.20655C20.947 3.41808 21.1908 3.74095 21.1908 4.47575C21.2018 5.95648 21.1908 7.44835 21.1908 8.92908C21.1575 8.92908 21.1243 8.92908 21.1021 8.92908ZM1.52509 9.25195C1.52509 10.3096 1.52509 11.3673 1.52509 12.4249C1.53617 15.3307 2.56654 17.8135 4.6716 19.8175C6.27809 21.3428 8.18372 22.3893 10.1891 23.2577C10.455 23.369 10.8649 23.3245 11.1308 23.1909C12.4714 22.4895 13.8341 21.8215 15.0861 20.9754C18.144 18.8934 19.684 15.9653 19.6507 12.2134C19.6286 9.87542 19.6397 7.53742 19.6618 5.19942C19.6618 4.80975 19.5399 4.66502 19.1854 4.54255C16.4267 3.61848 13.679 2.66102 10.9203 1.73695C10.7209 1.67015 10.4439 1.67015 10.2445 1.73695C7.51897 2.66102 4.81563 3.61848 2.09013 4.53142C1.70236 4.66502 1.52509 4.79862 1.53617 5.25508C1.54725 6.57995 1.52509 7.91595 1.52509 9.25195Z" fill="#5E563C"></path>
<path d="M9.38028 13.9392C10.6212 12.6588 11.8066 11.423 13.0032 10.1872C13.4907 9.67509 13.9671 9.16296 14.4546 8.66196C14.8423 8.26116 15.2855 8.21663 15.629 8.51723C15.9724 8.81783 15.9724 9.34109 15.5847 9.75303C14.2441 11.167 12.9035 12.5586 11.5518 13.9614C11.0754 14.4513 10.6212 14.9634 10.1447 15.4533C9.65726 15.9432 9.18085 15.9432 8.69336 15.4756C7.70731 14.5292 6.73234 13.5718 5.75736 12.6143C5.38067 12.2469 5.34743 11.757 5.64657 11.423C5.94571 11.1002 6.51075 11.1113 6.87637 11.4787C7.69623 12.2803 8.52717 13.093 9.38028 13.9392Z" fill="#5E563C"></path>
</svg>