<svg width="21" height="31" viewBox="0 0 21 31" fill="none" xmlns="http://www.w3.org/2000/svg">
<path d="M3.46027 24.8541C3.24584 24.9416 3.00281 24.9853 2.81697 25.1311C2.431 25.4226 2.08791 25.7433 1.73052 26.064C2.13079 26.3556 2.50247 26.7783 2.95993 26.8949C3.84624 27.1282 4.78974 27.2448 5.70465 27.3031C9.6359 27.5801 13.5528 27.4051 17.4555 26.8804C17.7557 26.8366 18.0702 26.7783 18.3704 26.72C18.885 26.618 19.3568 26.4576 19.3282 25.7579C19.8857 26.1223 19.9143 26.5597 19.3711 26.8366C18.7135 27.1573 18.013 27.4197 17.2983 27.5946C13.8388 28.4401 10.3078 28.513 6.7911 28.3818C5.04706 28.3089 3.28872 28.032 1.55897 27.755C0.858497 27.6238 0.0293617 27.3906 0.000770866 26.4868C-0.02782 25.583 0.744134 25.2185 1.44461 24.9853C2.07361 24.7667 2.7455 24.7083 3.40309 24.5771C3.41738 24.6646 3.43168 24.7521 3.46027 24.8541Z" fill="#2F3A00"></path>
<path d="M9.97901 15.8455C9.12128 14.9563 8.17779 14.1399 7.42013 13.1633C6.31938 11.7784 6.34797 10.4227 7.29147 8.92128C8.20638 7.44898 9.63592 6.54519 10.9368 5.48105C11.9375 4.66472 12.881 3.80466 13.2813 2.52187C13.5243 1.74927 13.5672 0.918367 13.7101 0C13.8674 0.174927 14.0675 0.306122 14.1676 0.510204C14.7108 1.64723 14.6965 2.82799 13.996 3.83382C13.4242 4.65015 12.6237 5.29154 11.9232 6.00583C11.0941 6.83673 10.1649 7.58017 9.43578 8.48396C7.86329 10.4082 7.8347 12.1429 9.19276 14.2128C9.50726 14.6939 9.85035 15.1603 10.1791 15.6268C10.0934 15.7143 10.0362 15.7726 9.97901 15.8455Z" fill="#2F3A00"></path>
<path d="M16.3118 6.41406C15.6114 6.92427 14.8823 7.40532 14.1961 7.94467C13.6815 8.33826 13.1811 8.761 12.738 9.22747C11.8374 10.2041 11.8945 11.312 12.8237 12.2595C13.0096 12.449 13.2812 12.5802 13.3956 12.7989C13.6243 13.2362 13.8959 13.7173 13.8959 14.1837C13.9245 15.2041 12.6093 16.6181 11.3799 16.8951C11.5515 16.6181 11.6658 16.4141 11.7802 16.2391C12.4664 15.1021 12.4521 14.6356 11.5657 13.6444C10.708 12.6677 10.2363 11.5744 10.7223 10.3208C10.9796 9.66479 11.3942 9.00881 11.9088 8.55692C13.1668 7.41989 14.6965 6.82223 16.3118 6.41406Z" fill="#2F3A00"></path>
<path d="M16.1403 18.0175C15.0967 18.2944 14.0674 18.6734 13.0096 18.8192C10.0647 19.2128 7.11986 19.1982 4.18929 18.7026C3.88909 18.6589 3.56029 18.6006 3.30298 18.4402C3.03136 18.2944 2.64539 18.0175 2.64539 17.7988C2.64539 17.5073 2.9027 17.1137 3.16002 16.9533C4.08923 16.3848 5.13279 16.1807 6.26213 16.3557C5.67602 16.6472 5.07561 16.9387 4.4895 17.2303C4.50379 17.3323 4.51809 17.4198 4.53238 17.5218C4.87547 17.6239 5.21857 17.7842 5.56166 17.828C8.74954 18.2653 11.9231 18.032 15.111 17.7405C15.4255 17.7113 15.7543 17.6822 16.0688 17.653C16.0831 17.7842 16.1117 17.9008 16.1403 18.0175Z" fill="#2F3A00"></path>
<path d="M4.56105 29.0672C4.7183 29.0672 4.87555 29.0526 5.0328 29.0672C8.57807 29.3442 12.1233 29.2713 15.6543 28.7611C16.5692 28.6299 17.4984 28.4695 18.3704 28.178C19.2282 27.8864 20.043 27.42 20.915 27.0264C21.1581 27.4345 20.8864 27.8573 20.6005 28.0905C20.0716 28.5278 19.4855 28.9797 18.8565 29.1546C17.6271 29.4899 16.3405 29.7232 15.0682 29.8398C11.8517 30.1167 8.64954 30.1022 5.46166 29.4753C5.14716 29.417 4.84696 29.315 4.54675 29.2275C4.54675 29.1692 4.54675 29.1255 4.56105 29.0672Z" fill="#2F3A00"></path>
<path d="M5.79038 19.8252C5.47589 20.6269 6.01911 20.8456 6.53375 20.8602C8.30638 20.9331 10.0933 20.9622 11.8659 20.9622C12.3663 20.9622 12.8666 20.8602 13.3384 20.7436C14.0531 20.5541 14.5821 20.8164 15.1968 21.4287C14.6107 21.5745 14.1389 21.7348 13.6529 21.8223C11.1941 22.2596 8.73525 22.3908 6.27643 21.9243C5.99052 21.866 5.71891 21.8077 5.44729 21.7057C4.97554 21.5162 4.44661 21.3121 4.57527 20.6561C4.68964 20.0439 5.17568 19.8689 5.79038 19.8252Z" fill="#2F3A00"></path>
<path d="M6.51952 22.9883C6.30509 23.8192 6.8912 24.0378 7.40584 24.0524C9.10699 24.0962 10.8224 24.169 12.5093 23.9941C13.367 23.9066 14.0246 23.9795 14.7823 24.723C13.8102 24.9416 12.9668 25.1749 12.0947 25.2915C10.3936 25.5247 8.67813 25.5393 6.99127 25.1166C6.69106 25.0437 6.34797 24.9854 6.13354 24.7813C5.84763 24.5189 5.49025 24.1253 5.47595 23.79C5.47595 23.2652 5.962 23.0612 6.51952 22.9883Z" fill="#2F3A00"></path>
<path d="M17.1982 21.7198C17.5413 21.4282 17.8129 21.2387 18.0417 21.0055C18.5134 20.4953 19.0138 19.9997 19.414 19.4457C20.2146 18.3233 19.8858 16.4282 17.8415 16.2096C18.0703 16.1075 18.2847 15.9618 18.5277 15.918C20.0716 15.6265 21.3296 17.1425 20.9151 18.8043C20.5863 20.2183 18.8994 21.574 17.1982 21.7198Z" fill="#2F3A00"></path>
</svg>