<svg width="25" height="25" viewBox="0 0 25 25" fill="none" xmlns="http://www.w3.org/2000/svg">
<g clip-path="url(#clip0_212_1797)">
<path d="M25 12.5052C25 16.1931 25 19.8809 25 23.5792C25 24.6657 24.6534 25 23.5504 25C16.2185 25 8.88656 25 1.55462 25C0.367647 25 0 24.6448 0 23.4956C0 16.1513 0 8.80694 0 1.4626C0 0.396991 0.388655 0 1.43908 0C8.79202 0 16.1345 0 23.4874 0C24.6534 0 24.9895 0.334308 24.9895 1.48349C25 5.16089 25 8.83828 25 12.5052ZM23.6029 1.42081C16.187 1.42081 8.79202 1.42081 1.38655 1.42081C1.38655 8.82783 1.38655 16.2035 1.38655 23.5896C8.81302 23.5896 16.1975 23.5896 23.6029 23.5896C23.6029 16.1826 23.6029 8.80694 23.6029 1.42081Z" fill="#596C01"></path>
<path d="M15.7563 18.6896C16.355 19.703 17.1953 20.1522 18.2983 19.9537C18.6659 19.8911 19.0756 19.6821 19.3067 19.4105C19.7374 18.9195 19.5483 18.2613 18.918 17.927C18.3718 17.6345 17.7731 17.4255 17.1953 17.1748C16.8277 17.0076 16.4601 16.8614 16.1134 16.6629C15.0105 16.0361 14.6218 15.0436 14.8109 13.8317C14.9895 12.7034 15.7038 12.0035 16.7962 11.7214C18.2353 11.3557 19.5378 11.5647 20.5987 12.693C21.0084 13.1318 20.9874 13.2153 20.5042 13.5287C20.1785 13.7377 19.8529 13.9362 19.4853 14.166C19.0966 13.6019 18.5819 13.2571 17.8676 13.2676C17.2899 13.278 16.8277 13.5601 16.7122 13.9884C16.5756 14.5003 16.7542 14.8973 17.3739 15.1898C18.0987 15.5346 18.855 15.7958 19.5903 16.1301C21.0924 16.83 21.6911 18.0106 21.3235 19.515C21.1449 20.2671 20.7248 20.8417 20.042 21.2178C18.2878 22.1999 15.7773 21.7402 14.5483 20.2149C14.1491 19.7135 14.1491 19.6821 14.6743 19.3582C15.021 19.1389 15.3571 18.9404 15.7563 18.6896Z" fill="#596C01"></path>
<path d="M6.50208 19.6929C7.01678 19.4004 7.52098 19.1287 8.03569 18.8362C8.14073 19.0138 8.21426 19.1496 8.29829 19.275C8.67644 19.8391 9.3172 20.0899 9.93695 19.9227C10.5567 19.7556 10.8298 19.369 10.8403 18.575C10.8508 16.4752 10.8613 14.3648 10.8403 12.265C10.8403 11.7949 10.9769 11.6486 11.4391 11.6904C11.8382 11.7217 12.2374 11.7008 12.7101 11.7008C12.7101 11.9411 12.7101 12.1292 12.7101 12.3172C12.7101 14.438 12.7101 16.5587 12.7101 18.6795C12.7101 20.4973 11.7122 21.5629 9.89493 21.7092C8.34031 21.8137 7.03779 21.0719 6.50208 19.6929Z" fill="#596C01"></path>
</g>
<defs>
<clipPath id="clip0_212_1797">
<rect width="25" height="25" fill="white"></rect>
</clipPath>
</defs>
</svg>