<svg width="20" height="25" viewBox="0 0 20 25" fill="none" xmlns="http://www.w3.org/2000/svg">
<path d="M9.43497 0.0717773C12.1853 -0.168451 14.8521 1.63231 15.4984 4.36279C15.6427 4.93755 15.6983 5.52505 15.7299 6.13232C15.7608 6.7269 15.7695 7.33725 15.8168 7.98291C16.1162 7.98206 16.4269 7.97475 16.7397 7.97705L17.0688 7.98389L17.3559 8.00928C18.7638 8.19598 19.7607 9.27906 19.7768 10.7563L19.7856 13.3882C19.7911 16.0222 19.7854 18.6613 19.7602 21.2905C19.744 22.8306 18.7178 23.979 17.2348 24.1167L16.932 24.1304C12.2852 24.1644 7.62151 24.1474 2.97501 24.1304H2.97403C2.10348 24.1217 1.37854 23.8112 0.869537 23.2729C0.360728 22.7348 0.0714132 21.9727 0.0628967 21.0688L0.0502014 15.9634C0.0502018 14.2619 0.0544802 12.5604 0.0628967 10.8589C0.0628967 9.21526 1.21238 8.03648 2.83829 7.96729C3.2468 7.95078 3.64181 7.96531 4.15274 7.96631C4.15096 7.0706 4.10405 6.23053 4.17032 5.40967L4.19669 5.13818C4.52767 2.3589 6.65548 0.321275 9.43497 0.0717773ZM2.95547 9.38623C2.49467 9.42212 2.15097 9.55815 1.91544 9.79443C1.64652 10.0644 1.50926 10.4745 1.50919 11.0454V21.0005C1.50919 21.6074 1.63904 22.0299 1.90958 22.3013C2.18007 22.5725 2.60182 22.7036 3.21036 22.7036H16.5951C17.265 22.7036 17.7069 22.5839 17.9828 22.3091C18.2584 22.0343 18.3803 21.5922 18.3803 20.9155C18.3803 17.6484 18.3805 14.3983 18.3637 11.1313C18.3637 10.4894 18.2376 10.054 17.9652 9.77881C17.693 9.5039 17.263 9.37744 16.6283 9.37744H3.16055L2.95547 9.38623ZM10.0629 1.56689C8.45188 1.57535 7.16339 2.20297 6.37442 3.31494C5.59013 4.42055 5.29518 6.01236 5.67715 7.96729H13.767C13.9214 7.96724 14.0583 7.93723 14.2895 7.90479C14.2911 7.05016 14.3387 6.27003 14.2729 5.50342L14.2494 5.29639C13.9603 3.17458 12.2053 1.55061 10.0629 1.56689Z" fill="#5E563C" stroke="#5E563C" stroke-width="0.1"></path>
<path d="M9.82721 13.1401C10.2542 13.1402 10.6127 13.2225 10.9044 13.394C11.1965 13.5659 11.4182 13.825 11.5733 14.1733H11.5723C11.876 14.8357 11.9032 15.6078 11.3819 16.0835L11.2706 16.1743C10.9259 16.4232 10.756 16.6947 10.6729 16.9897C10.5892 17.2868 10.5923 17.61 10.6006 17.9673C10.6176 18.1906 10.6007 18.436 10.6006 18.6519C10.609 18.8982 10.5972 19.1523 10.4981 19.3413C10.4477 19.4374 10.3744 19.517 10.2706 19.5698C10.1671 19.6224 10.036 19.647 9.87408 19.6382C9.72077 19.6293 9.5969 19.5923 9.49811 19.5317C9.3989 19.4708 9.32737 19.3871 9.2774 19.2896C9.17864 19.0966 9.1625 18.8471 9.17096 18.5991L9.17877 18.0483C9.17877 17.8656 9.17908 17.6812 9.18756 17.4927V17.4917C9.20414 17.2402 9.18749 17.0268 9.11334 16.8364C9.05795 16.6943 8.96991 16.562 8.836 16.4351L8.68561 16.3101C8.36571 16.0654 8.16869 15.7618 8.08795 15.4243C8.0074 15.0875 8.04346 14.7201 8.18073 14.3472L8.1817 14.3442C8.50814 13.5804 9.09621 13.1578 9.82526 13.1401H9.82721ZM9.88385 14.3218C9.78266 14.4722 9.67426 14.6095 9.59576 14.7202C9.55105 14.7833 9.5161 14.8387 9.4942 14.8872C9.47251 14.9354 9.46673 14.9719 9.47174 14.9995C9.493 15.0749 9.57293 15.1629 9.68268 15.2368C9.7917 15.3103 9.91764 15.3619 10.0157 15.3696H10.0186C10.0241 15.3702 10.0348 15.3694 10.0518 15.3628C10.0687 15.3562 10.0892 15.3448 10.1114 15.3296C10.1555 15.2993 10.204 15.2552 10.2481 15.2056C10.2924 15.1557 10.3315 15.102 10.3565 15.0542C10.369 15.0303 10.3773 15.0086 10.3819 14.9907C10.3866 14.9724 10.3863 14.9607 10.3848 14.9546L10.3819 14.9458V14.9448C10.3743 14.8448 10.3152 14.7535 10.2139 14.647C10.1635 14.594 10.1049 14.5397 10.0411 14.479C9.99053 14.4309 9.93814 14.3779 9.88385 14.3218Z" fill="#5E563C" stroke="#5E563C" stroke-width="0.1"></path>
</svg>