<svg width="24" height="25" viewBox="0 0 24 25" fill="none" xmlns="http://www.w3.org/2000/svg">
<g clip-path="url(#clip0_213_2171)">
<path d="M12.0174 0C12.2607 0.0921659 12.4809 0.14977 12.6779 0.253456C16.2472 2.26959 19.8165 4.28571 23.3858 6.31336C24.2318 6.79723 24.2086 7.53456 23.351 8.02995C19.8397 10.0346 16.3168 12.0161 12.817 14.0323C12.2492 14.3548 11.7624 14.3548 11.1946 14.0323C7.71801 12.0507 4.22984 10.0806 0.753261 8.09908C-0.220182 7.54608 -0.243359 6.79723 0.718495 6.25576C4.20667 4.26267 7.70642 2.28111 11.2062 0.31106C11.4495 0.172811 11.7393 0.103687 12.0174 0ZM2.08595 7.14286C5.33076 8.97465 8.49445 10.7604 11.6697 12.523C11.8783 12.6382 12.2723 12.5691 12.5041 12.4424C14.7175 11.2327 16.9078 9.98848 19.098 8.74424C20.0135 8.22581 20.9174 7.70737 21.8909 7.15438C18.6692 5.3341 15.5287 3.54839 12.365 1.78571C12.1796 1.68203 11.832 1.70507 11.6234 1.80876C11.0324 2.08525 10.4761 2.43088 9.90826 2.75346C7.31241 4.21659 4.72815 5.6682 2.08595 7.14286Z" fill="#5E563C"></path>
<path d="M21.9025 17.8918C21.3462 17.5692 20.8711 17.2927 20.3959 16.9932C20.0019 16.7397 20.0019 16.3826 20.3844 16.1291C20.79 15.8641 21.1956 15.7489 21.6707 16.06C22.2501 16.4402 22.8759 16.7512 23.4669 17.1084C24.1738 17.5346 24.1738 18.295 23.4437 18.6982C19.8976 20.7259 16.3515 22.7305 12.8054 24.7582C12.2492 25.0807 11.7393 25.0807 11.183 24.7582C7.63689 22.7305 4.09078 20.7259 0.533077 18.7213C-0.173828 18.3181 -0.185416 17.5462 0.5099 17.1199C1.14727 16.7282 1.79624 16.3595 2.45679 15.9793C2.86239 15.7489 3.5577 15.8987 3.81265 16.2674C4.02125 16.5669 3.90536 16.7973 3.60406 16.9817C3.12892 17.2582 2.65379 17.5577 2.1323 17.8688C2.2366 17.9494 2.31772 18.03 2.41043 18.0761C5.43506 19.7812 8.44809 21.4632 11.4611 23.1798C11.8436 23.3987 12.1333 23.4102 12.5157 23.1913C15.6099 21.4287 18.7156 19.689 21.9025 17.8918Z" fill="#5E563C"></path>
<path d="M21.8793 12.5115C21.4273 12.2465 21.0449 12.0046 20.6393 11.7857C20.3148 11.6129 20.0019 11.44 20.1642 11.0023C20.2685 10.6912 20.987 10.3571 21.2999 10.5299C22.0995 10.9447 22.9107 11.3709 23.6523 11.8663C24.197 12.2235 24.0579 12.9493 23.4206 13.3179C21.4041 14.4815 19.3877 15.6451 17.3597 16.7972C15.8416 17.6612 14.3003 18.5023 12.7822 19.3778C12.2376 19.6889 11.7624 19.7004 11.2178 19.3778C7.7296 17.3963 4.22984 15.4147 0.730079 13.4216C-0.220187 12.8801 -0.220187 12.1659 0.730079 11.6244C1.30951 11.2903 1.90053 10.9447 2.47996 10.6221C2.86238 10.4147 3.662 10.576 3.78947 10.9562C3.859 11.152 3.70835 11.5207 3.54611 11.6474C3.12892 11.97 2.63061 12.2004 2.08595 12.5115C2.68855 12.8456 3.23322 13.1566 3.77788 13.4562C6.35055 14.8963 8.92322 16.3364 11.4727 17.788C11.8551 18.0069 12.1449 18.0184 12.5273 17.788C15.5171 16.0829 18.5302 14.4009 21.5316 12.7073C21.6243 12.6728 21.717 12.6152 21.8793 12.5115Z" fill="#5E563C"></path>
</g>
<defs>
<clipPath id="clip0_213_2171">
<rect width="24" height="25" fill="white"></rect>
</clipPath>
</defs>
</svg>