<svg width="25" height="25" viewBox="0 0 25 25" fill="none" xmlns="http://www.w3.org/2000/svg">
<path d="M12.5745 0.000244141C19.7575 0.116599 25.0996 5.66804 25.0002 12.9651C24.9173 19.5642 19.0606 25.1 12.259 24.9836C5.42454 24.8837 -0.115675 19.1989 0.000244141 12.4172C0.116368 5.40264 5.68997 -0.0994298 12.5745 0.000244141ZM12.3586 1.49634C6.40322 1.49649 1.46022 6.54939 1.47681 12.6165C1.47687 18.5173 6.48623 23.4874 12.425 23.4875C18.4635 23.4875 23.4738 18.5672 23.5071 12.5667C23.5403 6.39976 18.6128 1.51296 12.3586 1.49634ZM17.22 8.80981C17.4854 8.72682 17.9496 8.72672 18.0823 8.89282C18.2481 9.10883 18.2978 9.55749 18.1819 9.82349C18.0492 10.1227 17.7003 10.3388 17.4514 10.6047C15.5936 12.4663 13.736 14.3281 11.8782 16.1897C11.2478 16.8213 10.8494 16.838 10.2024 16.1897C9.2403 15.2423 8.29437 14.2621 7.33228 13.3147C6.96731 12.9656 6.76812 12.5828 7.16626 12.1672C7.58085 11.7352 7.99578 11.8682 8.3938 12.2668C9.23982 13.1478 10.1025 14.0128 11.0481 14.9602C12.9392 13.0321 14.7644 11.1871 16.6057 9.34204C16.8048 9.14257 16.9877 8.8763 17.22 8.80981Z" fill="#5E563C"></path>
</svg>