<svg width="27" height="27" viewBox="0 0 27 27" fill="none" xmlns="http://www.w3.org/2000/svg">
<g clip-path="url(#clip0_221_2554)">
<path d="M6.58542 6.91296C6.58542 5.76557 6.51224 4.70532 6.60005 3.64507C6.71712 2.2653 7.522 1.30672 8.79517 0.812903C9.64395 0.493376 10.5513 0.246469 11.4586 0.144802C13.5659 -0.0875811 15.6879 -0.116629 17.7366 0.624092C19.522 1.27767 20.3854 2.48316 20.4293 4.35674C20.444 5.17008 20.4293 5.99795 20.4293 6.89843C21.161 6.89843 21.8049 6.88391 22.4635 6.89843C24.0879 6.95653 25.3757 7.62463 26.0342 9.10607C27.2927 11.8947 27.322 14.7414 26.1366 17.5445C25.4488 19.1566 24.1025 19.8974 22.3757 19.9409C21.7464 19.9555 21.1171 19.9409 20.444 19.9409C20.444 20.7978 20.444 21.5676 20.444 22.3374C20.444 24.2981 19.6976 25.5326 17.8391 26.2007C14.8976 27.261 11.9122 27.2319 8.97078 26.1572C7.30249 25.5326 6.57078 24.1964 6.49761 22.4826C6.46834 21.7129 6.49761 20.9431 6.49761 20.0571C6.02932 20.0571 5.6342 20.0426 5.22444 20.0571C2.51712 20.2169 1.02444 18.75 0.395172 16.3535C-0.146292 14.2766 -0.102389 12.1851 0.526879 10.1227C1.17078 8.01678 2.722 6.91296 4.94639 6.91296C5.44395 6.91296 5.94151 6.91296 6.58542 6.91296ZM20.4293 7.9732C20.4293 8.67035 20.444 9.28036 20.4293 9.87584C20.3854 12.2723 18.7903 13.8554 16.361 13.8699C14.4586 13.8844 12.5561 13.8699 10.6537 13.8844C8.722 13.899 7.60981 14.9737 7.58054 16.8909C7.55127 18.7064 7.5659 20.5219 7.58054 22.3374C7.58054 23.7462 8.22444 24.7774 9.58541 25.2276C12.2049 26.0991 14.8537 26.07 17.4732 25.1841C18.483 24.85 19.2001 24.1238 19.2879 23.02C19.3757 22.0469 19.3025 21.0593 19.3025 20.0135C18.9952 19.999 18.7318 19.9845 18.4683 19.9845C17.0342 19.9845 15.5854 19.9845 14.1513 19.9845C13.7854 19.9845 13.3318 20.1007 13.3171 19.4762C13.3025 18.8226 13.7708 18.9097 14.1805 18.8952C14.4 18.8952 14.6196 18.8952 14.8391 18.8952C17.283 18.8952 19.7122 18.9097 22.1561 18.8952C23.7366 18.8807 24.7903 18.2126 25.2879 16.7602C26.0488 14.5961 26.0342 12.3885 25.3025 10.2099C24.8781 8.94631 23.9854 8.11844 22.5952 8.00225C21.922 7.92963 21.2488 7.9732 20.4293 7.9732ZM6.48298 18.8952C6.48298 18.0819 6.46834 17.3411 6.48298 16.5859C6.54151 14.6106 7.90249 13.1002 9.8781 12.8387C10.244 12.7952 10.6098 12.7806 10.9757 12.7806C12.761 12.7806 14.5318 12.8097 16.3171 12.7661C18.1464 12.7371 19.3171 11.6187 19.3318 9.90489C19.361 8.06035 19.3464 6.23033 19.3318 4.38579C19.3171 3.16578 18.7757 2.19268 17.5757 1.81505C16.5659 1.481 15.5122 1.27767 14.444 1.16148C12.8049 0.98719 11.1805 1.13243 9.61468 1.65529C8.82444 1.91672 8.0342 2.32339 7.87322 3.16578C7.65371 4.28412 7.65371 5.43152 7.55127 6.62248C9.51224 6.62248 11.2683 6.62248 13.0244 6.62248C13.4342 6.62248 13.6537 6.76772 13.6683 7.21796C13.683 7.69725 13.4196 7.76987 13.0244 7.78439C10.2293 7.87154 7.4342 7.9732 4.63907 8.04582C3.39517 8.07487 2.44395 8.59773 1.94639 9.71608C0.804928 12.2578 0.819562 14.8285 1.99029 17.3702C2.38542 18.2126 3.08785 18.7645 4.00981 18.8807C4.78542 18.9678 5.59029 18.8952 6.48298 18.8952Z" fill="#2F3A00"></path>
<path d="M17.9854 22.5263C18 23.3251 17.3854 23.9641 16.5659 23.9641C15.761 23.9787 15.1171 23.3541 15.1317 22.5553C15.1463 21.771 15.7171 21.1901 16.5073 21.1465C17.3122 21.1175 17.9707 21.7275 17.9854 22.5263ZM17.0781 22.5408C16.8732 22.3665 16.7122 22.1487 16.5951 22.1777C16.4342 22.2067 16.3024 22.4101 16.1415 22.5263C16.2878 22.657 16.4049 22.8749 16.5805 22.9184C16.6976 22.9475 16.8585 22.7151 17.0781 22.5408Z" fill="#2F3A00"></path>
<path d="M8.95618 4.13904C8.95618 3.3257 9.57081 2.70117 10.3611 2.70117C11.1659 2.70117 11.7952 3.31118 11.7952 4.10999C11.7952 4.90881 11.1806 5.53334 10.3757 5.56239C9.58545 5.57691 8.95618 4.93786 8.95618 4.13904ZM10.9318 4.12452C10.6684 3.92118 10.5074 3.73237 10.3464 3.71785C10.2293 3.70332 9.96593 3.95023 9.98057 4.03737C10.0245 4.21166 10.1854 4.44404 10.3318 4.47309C10.4635 4.51666 10.6537 4.31333 10.9318 4.12452Z" fill="#2F3A00"></path>
</g>
<defs>
<clipPath id="clip0_221_2554">
<rect width="27" height="27" fill="white"></rect>
</clipPath>
</defs>
</svg>