<svg width="23" height="26" viewBox="0 0 23 26" fill="none" xmlns="http://www.w3.org/2000/svg">
<path d="M11.0973 0.050293C14.4763 0.0216742 17.2352 2.80733 17.2447 6.22998C17.2446 9.66202 14.4953 12.4372 11.107 12.4087C7.75777 12.3801 5.04541 9.67228 5.03575 6.32471L5.04161 6.00635C5.17961 2.73727 7.85148 0.0780634 11.0973 0.050293ZM11.2018 1.50342C8.60566 1.50342 6.49486 3.60913 6.47618 6.21143C6.46709 8.81384 8.58798 10.9751 11.1549 10.9751C13.6468 10.9748 15.8238 8.79377 15.8238 6.27686C15.8238 3.60748 13.787 1.51296 11.2018 1.50342Z" fill="#5E563C" stroke="#5E563C" stroke-width="0.1"></path>
<path d="M11.0755 14.3809C11.9906 14.4943 12.9212 14.5513 13.849 14.6426C14.7749 14.7337 15.6944 14.8594 16.5765 15.1113C18.3694 15.6248 19.743 16.5715 20.6752 17.8594C21.6072 19.1473 22.0959 20.7737 22.1244 22.6406C22.1337 23.1832 22.1905 23.7604 22.0853 24.2969C22.0579 24.4432 21.9407 24.5638 21.8148 24.6699C21.7507 24.7239 21.6809 24.7774 21.6146 24.8291C21.5476 24.8813 21.4837 24.9329 21.4291 24.9854L21.3929 25.0195L21.3587 24.9834C21.3061 24.9284 21.2452 24.8739 21.182 24.8184C21.1194 24.7634 21.0539 24.7069 20.9935 24.6494C20.8738 24.5353 20.7636 24.4082 20.7318 24.2598V24.2588C20.6265 23.778 20.6838 23.2575 20.7025 22.7715L20.7093 22.3926C20.6707 18.533 17.5565 16.2805 14.5873 16.1074C12.1825 15.9657 9.7681 15.9559 7.36363 16.0977C4.21119 16.2852 1.62511 19.1942 1.61559 22.3477C1.61559 22.9227 1.65204 23.5069 1.60387 24.084L1.5775 24.3311C1.56917 24.4 1.53742 24.4725 1.49449 24.541C1.45104 24.6103 1.39401 24.679 1.33141 24.7393C1.26878 24.7996 1.19897 24.8533 1.13023 24.8926C1.06249 24.9313 0.991449 24.958 0.926132 24.9609C0.860184 24.9638 0.786176 24.9422 0.715195 24.9082C0.643322 24.8738 0.569745 24.8245 0.502304 24.7686C0.434888 24.7126 0.37256 24.6485 0.323593 24.583C0.275088 24.5181 0.236871 24.4485 0.223007 24.3818V24.3809C-0.535665 20.9263 1.25783 17.0439 4.45055 15.5391H4.45152C5.59165 15.0059 6.91085 14.8071 8.16441 14.6182C8.63587 14.5466 9.11865 14.5391 9.60094 14.5498C10.0703 14.5602 10.5355 14.5863 10.9974 14.5879C11.005 14.5298 11.0123 14.4767 11.0199 14.4238L11.0267 14.375L11.0755 14.3809Z" fill="#5E563C" stroke="#5E563C" stroke-width="0.1"></path>
<path d="M16.8837 23.7168C17.1349 23.7168 17.3734 23.7445 17.5487 23.8525C17.7296 23.9642 17.8349 24.1558 17.8299 24.458C17.8275 24.6131 17.7958 24.7367 17.7391 24.834C17.6822 24.9317 17.6017 24.9996 17.5067 25.0459C17.3665 25.1142 17.1935 25.136 17.0145 25.1406H5.50084C5.27192 25.1406 5.02268 25.1369 4.83092 25.0527C4.73328 25.0099 4.64827 24.9453 4.58873 24.8496C4.52954 24.7543 4.49791 24.6312 4.49791 24.4756C4.49797 24.3154 4.52958 24.1855 4.58873 24.082C4.64808 23.9783 4.73357 23.9044 4.83385 23.8516C5.03192 23.7473 5.29263 23.7256 5.54771 23.7256C9.323 23.7256 13.1077 23.7357 16.8827 23.7168H16.8837Z" fill="#5E563C" stroke="#5E563C" stroke-width="0.1"></path>
</svg>