<svg width="160" height="33" viewBox="0 0 160 33" fill="none" xmlns="http://www.w3.org/2000/svg">
<g clip-path="url(#clip0_170_914)">
<path d="M8.86816 0.413474C9.32767 0.321573 9.46552 0.275622 9.60337 0.229671C12.9578 -0.367686 15.2093 0.735128 17.1852 3.72192C20.8613 9.28194 25.0428 14.4744 28.9945 19.8046C29.454 20.402 29.9135 20.9534 30.7407 22.0103C30.7407 14.4744 30.7407 7.48987 30.7407 0.321573C32.7625 0.321573 34.5545 0.321573 36.5764 0.321573C36.6223 1.19463 36.6683 2.02174 36.6683 2.80291C36.6683 11.7633 36.6223 20.7236 36.7142 29.684C36.7142 31.6139 36.1628 32.0734 34.2788 32.1653C31.8435 32.2572 30.2811 31.568 28.8107 29.4543C24.3535 23.159 19.6206 17.0016 14.566 10.155C14.566 17.7828 14.566 24.7673 14.566 31.9356C12.5442 31.9356 10.7521 31.9356 8.86816 31.9356C8.86816 21.4129 8.86816 10.9362 8.86816 0.413474Z" fill="#F7F3E8"></path>
<path d="M39.8389 31.9357C39.8389 21.413 39.8389 10.9822 39.8389 0C45.307 0.229753 50.6832 -0.0459506 55.9216 0.827111C63.2737 2.06778 68.6039 9.64963 68.1444 17.0017C67.639 24.8133 61.6654 31.2924 53.8998 31.9357C49.6263 32.3033 45.3529 32.1195 41.0336 32.1654C40.666 32.1654 40.2984 32.0276 39.8389 31.9357ZM45.8124 6.29523C45.8124 13.05 45.8124 19.6209 45.8124 26.3297C48.2019 26.3297 50.4535 26.4675 52.6591 26.2837C57.7596 25.9621 61.8492 21.9184 62.1709 17.0936C62.4925 11.8553 59.276 7.2602 54.1755 6.38713C51.5103 5.92763 48.7073 6.29523 45.8124 6.29523Z" fill="#F7F3E8"></path>
<path d="M113.82 26.2834C119.104 26.2834 124.251 26.2834 129.627 26.2834C129.627 28.2593 129.627 30.0513 129.627 31.9813C122.367 31.9813 115.106 31.9813 107.846 31.9813C107.846 21.3667 107.846 10.8899 107.846 0.321289C115.152 0.321289 122.321 0.321289 129.627 0.321289C129.627 2.15931 129.627 3.95139 129.627 6.01916C124.434 6.01916 119.196 6.01916 113.774 6.01916C113.774 8.54645 113.774 10.7521 113.774 13.2334C119.012 13.2334 124.205 13.2334 129.581 13.2334C129.581 15.2093 129.581 17.0014 129.581 18.9772C124.388 18.9772 119.196 18.9772 113.82 18.9772C113.82 21.4586 113.82 23.7101 113.82 26.2834Z" fill="#F7F3E8"></path>
<path d="M132.062 0.229329C134.405 0.229329 136.335 0.0914772 138.311 0.32123C138.955 0.367181 139.69 1.14834 140.103 1.79165C141.987 4.54869 143.779 7.39762 145.847 10.6601C147.318 8.36259 148.88 6.38671 149.937 4.18108C151.453 1.05644 153.613 -0.45993 157.151 0.229329C157.794 0.367181 158.529 0.229329 159.632 0.229329C159.081 1.19429 158.713 1.88355 158.254 2.52686C155.635 6.47861 153.061 10.4763 150.35 14.3362C149.523 15.5309 149.523 16.358 150.396 17.5527C153.153 21.5045 155.727 25.5941 158.346 29.5918C158.805 30.281 159.219 30.9703 159.908 32.1191C157.427 32.1191 155.405 32.211 153.383 32.0731C152.786 32.0271 152.142 31.246 151.775 30.6486C149.799 27.6618 147.915 24.6291 145.801 21.2288C143.871 24.2155 142.033 26.8347 140.517 29.5918C139.414 31.6136 138.036 32.4867 135.784 32.165C134.589 31.9812 133.395 32.1191 131.694 32.1191C132.475 30.8784 132.981 30.0053 133.532 29.1323C136.106 25.2265 138.587 21.2747 141.252 17.4608C142.079 16.2201 142.033 15.393 141.206 14.2443C138.495 10.2925 135.876 6.20291 133.211 2.20521C132.935 1.69975 132.613 1.10239 132.062 0.229329Z" fill="#F7F3E8"></path>
<path d="M88.8684 6.11101C85.4221 6.11101 82.3893 6.11101 79.2188 6.11101C79.2188 4.13514 79.2188 2.34306 79.2188 0.367188C87.5818 0.367188 95.8988 0.367188 104.354 0.367188C104.354 2.20521 104.354 3.99728 104.354 6.06506C101.229 6.06506 98.1504 6.06506 94.842 6.06506C94.842 14.7957 94.842 23.2506 94.842 31.9352C92.7742 31.9352 90.9362 31.9352 88.8684 31.9352C88.8684 23.3425 88.8684 14.8876 88.8684 6.11101Z" fill="#F7F3E8"></path>
<path d="M0.367543 0.321289C2.06772 0.321289 3.72194 0.321289 5.55996 0.321289C5.55996 10.8899 5.55996 21.4126 5.55996 32.1651C4.08954 32.1651 2.61912 32.257 1.2406 32.1191C0.781098 32.0732 0.0458888 31.338 0.0458888 30.9244C-6.17717e-05 20.8153 0.0458888 10.7521 0.0918394 0.688894C0.0918394 0.596993 0.183741 0.551042 0.367543 0.321289Z" fill="#F7F3E8"></path>
<path d="M75.8187 32.0271C73.9347 32.0271 72.2345 32.0271 70.3965 32.0271C70.3965 21.4585 70.3965 10.9817 70.3965 0.413086C72.1886 0.413086 73.8887 0.413086 75.8187 0.413086C75.8187 10.8439 75.8187 21.3206 75.8187 32.0271Z" fill="#F7F3E8"></path>
</g>
<defs>
<clipPath id="clip0_170_914">
<rect width="160" height="32.3033" fill="#F7F3E8"></rect>
</clipPath>
</defs>
</svg>