<svg width="125" height="39" viewBox="0 0 125 39" fill="none" xmlns="http://www.w3.org/2000/svg">
<g clip-path="url(#clip0_170_997)">
<path d="M0 35.433C0.328162 34.5487 0.894988 34.077 1.90931 33.8707C3.46062 33.5464 4.35561 32.2788 4.74344 30.8934C5.66826 27.5328 6.47375 24.1428 7.2494 20.7528C8.08473 17.1269 8.89021 13.4716 9.6957 9.84573C10.1432 7.8412 10.2327 6.01353 7.7864 5.07022C7.48807 4.95231 7.21957 4.2743 7.2494 3.8616C7.27924 3.1836 7.36873 2.44664 7.72673 1.88655C8.05489 1.35594 8.71122 0.70741 9.24821 0.70741C14.7076 0.618974 20.1969 0.648453 25.6563 0.648453C26.6706 0.648453 27.148 1.06115 26.9391 2.0929C26.6408 3.50786 26.6408 5.01126 24.7613 5.54188C24.1647 5.71875 23.5382 6.6031 23.3592 7.28111C22.494 10.6417 21.7482 14.0317 21.241 17.5691C22.5835 16.5079 23.8962 15.4466 25.2088 14.3559C28.0728 11.9977 30.9368 9.63938 33.8007 7.28111C35.0239 6.24936 35.0239 5.98405 33.8007 4.95231C32.5477 3.89108 33.5322 2.74142 33.8007 1.70968C33.92 1.2675 34.7554 0.677931 35.2625 0.677931C40.2446 0.589496 45.1969 0.618974 50.179 0.618974C51.1337 0.618974 51.5215 1.00219 51.432 1.97498C51.2231 4.39222 50.9845 4.59857 48.568 5.24709C47.4045 5.57136 46.1217 5.98405 45.1969 6.72101C40.722 10.229 36.3663 13.8843 31.8317 17.5986C33.2637 19.5441 34.6659 21.4602 36.068 23.3174C37.9177 25.8231 39.7673 28.3287 41.6468 30.7754C42.9296 32.4262 44.1826 34.077 46.6587 34.0475C47.5537 34.0475 47.8819 34.6961 47.7029 35.6099C47.1957 38.4104 47.1957 38.4104 44.3019 38.4398C42.2136 38.4398 40.1253 38.3809 38.037 38.4398C33.0549 38.6167 29.2661 36.5237 26.611 32.4852C24.5823 29.4784 22.7625 26.2947 20.8831 23.1995C20.6444 22.7868 20.4057 22.3741 20.0179 21.6961C19.2721 25.1156 18.4964 28.2108 18.0191 31.3355C17.8998 32.0135 18.6456 33.1337 19.3317 33.5169C20.4654 34.136 20.6742 34.814 20.3162 35.9047C20.1671 36.3174 20.0776 36.7596 19.9881 37.1723C19.8389 38.1156 19.3317 38.4988 18.3473 38.4988C12.2315 38.4398 6.11575 38.4398 0 38.4104C0 37.4081 0 36.4058 0 35.433Z" fill="#F7F3E8"></path>
<path d="M125 3.30099C124.403 5.7477 123.836 8.22389 123.18 10.6706C123.001 11.3191 122.583 12.3214 122.166 12.3804C120.973 12.5572 119.72 12.3803 118.496 12.2624C118.347 12.233 118.168 11.6729 118.138 11.3781C118.109 7.81119 115.782 6.39622 112.5 6.27831C106.832 6.04248 101.7 9.8452 99.9701 15.5345C98.8066 19.3373 98.4188 23.1695 100.656 26.7658C102.774 30.1853 106.205 31.7477 110.054 31.8361C113.246 31.8951 116.438 31.335 119.63 30.8633C121.45 30.598 121.808 30.7749 121.48 32.6026C121.39 33.0742 121.211 33.5754 121.211 34.047C121.211 36.6116 119.839 37.6139 117.363 38.0561C110.919 39.1468 104.535 39.6479 98.1801 37.7908C91.8854 35.9631 87.2016 32.3078 85.9486 25.6457C84.1288 15.9472 89.7673 6.24883 99.0751 2.65246C107.1 -0.442777 115.304 -0.737562 123.657 1.26697C124.135 1.38489 124.552 1.62071 125 1.82706C125 2.3282 125 2.79985 125 3.30099Z" fill="#F7F3E8"></path>
<path d="M67.3926 16.8912C71.062 16.8912 74.5823 16.8912 78.1026 16.8912C80.3102 16.8912 80.4296 17.0681 79.9821 19.1611C79.7434 20.2518 79.4749 21.372 79.2959 22.4627C79.1169 23.5829 78.5203 23.9956 77.3866 23.9956C74.0155 23.9366 70.6145 24.025 67.2434 23.9366C66.1098 23.9071 65.6623 24.2609 65.5131 25.3516C65.2446 27.0908 64.7673 28.8005 64.4391 30.5398C64.2005 31.8368 64.6181 32.9275 65.8114 33.5171C66.8854 34.0477 66.9749 34.7847 66.7064 35.8164C65.9009 38.9411 66.2589 38.4105 63.3353 38.44C59.457 38.4695 55.5787 38.4695 51.7005 38.44C49.8508 38.44 49.7016 38.2042 50.0895 36.4649C52.1181 27.3266 54.1766 18.1883 56.1754 9.04998C56.6229 7.04544 56.2649 6.13161 54.5346 5.27674C52.9236 4.45134 53.7888 3.30168 53.9081 2.21098C54.0274 1.0908 54.5943 0.619141 55.7876 0.619141C63.1265 0.648619 70.4952 0.619141 77.8341 0.619141C80.7577 0.619141 83.7112 0.619141 86.6348 0.619141C88.1861 0.619141 88.4546 0.972882 88.0966 2.50576C87.5 5.12934 86.8735 7.75293 86.3365 10.406C86.1277 11.4672 85.6503 11.9683 84.5167 11.8504C84.2184 11.821 83.92 11.8504 83.6217 11.8504C81.3544 11.8504 81.3544 11.8504 81.1456 9.66903C80.9964 7.95928 80.1611 6.98649 78.4606 6.92753C75.7756 6.83909 73.0907 6.86857 70.4057 6.92753C70.0775 6.92753 69.5406 7.39919 69.4511 7.72345C68.7649 10.7008 68.1086 13.7076 67.3926 16.8912Z" fill="#F7F3E8"></path>
</g>
<defs>
<clipPath id="clip0_170_997">
<rect width="125" height="39" fill="#F7F3E8"></rect>
</clipPath>
</defs>
</svg>