<svg width="132" height="71" viewBox="0 0 132 71" fill="none" xmlns="http://www.w3.org/2000/svg">
<g clip-path="url(#clip0_170_928)">
<path d="M66.0279 38.7881C55.351 38.8442 46.6409 30.312 46.5847 19.7029C46.5286 8.86927 55.1263 0.056403 65.8031 0.000270094C76.5362 -0.0558628 85.3587 8.64474 85.4149 19.31C85.4149 30.1436 76.8734 38.732 66.0279 38.7881Z" fill="#F7F3E8"></path>
<path d="M19.2742 38.7879C8.54112 38.6757 -0.112771 29.9189 -0.000382419 19.2537C0.112006 8.58843 9.04687 -0.112168 19.6676 9.78168e-05C30.3444 0.112364 38.9421 8.92523 38.8298 19.6466C38.7736 30.4803 30.1197 38.9002 19.2742 38.7879Z" fill="#F7F3E8"></path>
<path d="M112.388 38.7881C101.599 38.7881 93.0574 30.1998 93.1136 19.3661C93.1136 8.64473 101.88 -0.0558628 112.557 0.000270092C123.177 0.056403 131.944 8.86927 131.944 19.5345C131.944 30.1998 123.234 38.7881 112.388 38.7881Z" fill="#F7F3E8"></path>
<path d="M18.319 54.8978C16.577 55.1224 15.116 55.4592 13.9921 53.2139C13.093 51.3615 10.9014 51.3053 8.9908 51.7544C7.81072 52.0351 6.79922 52.8209 6.68684 54.2804C6.63064 55.796 7.58594 56.4696 8.87841 56.8064C10.9576 57.3677 13.093 57.7045 15.116 58.3781C18.6562 59.613 19.9486 63.43 17.9257 66.6296C16.1274 69.4924 13.2615 70.2782 10.1147 70.0537C6.96781 69.8292 4.27049 68.5943 2.97802 65.4508C2.64086 64.665 1.96653 63.3739 3.03422 63.0371C3.98952 62.7564 5.56295 62.0267 6.29348 63.9914C7.19258 66.5173 9.32796 67.0787 11.8005 66.8541C13.4301 66.6857 14.7788 66.0683 15.0036 64.3282C15.2845 62.4196 13.8235 61.746 12.3624 61.297C10.6766 60.8479 8.87841 60.5673 7.19258 60.1182C4.66385 59.5007 3.03422 57.8167 2.92183 55.2346C2.80944 52.7087 3.98952 50.744 6.29348 49.5091C11.5195 46.7586 18.6 49.6775 18.319 54.8978Z" fill="#F7F3E8"></path>
<path d="M29.8949 62.9249C28.771 62.9249 27.6471 62.8688 26.5232 62.9249C25.8489 62.981 24.8374 62.4758 24.5003 63.3178C24.1631 64.1037 24.7812 64.8896 25.3432 65.5631C26.6918 67.1349 29.5577 67.4155 31.1874 66.0683C31.5245 65.7877 31.7493 65.2263 32.0865 65.0579C33.098 64.4966 34.4466 64.3282 35.2333 65.0018C36.0762 65.7315 35.0647 66.7419 34.559 67.4155C32.536 70.0538 28.1529 70.8396 24.8374 69.2679C21.6344 67.6962 20.0047 63.9353 20.8476 59.9499C21.6344 56.3574 24.8374 53.8875 28.6586 53.9998C32.3674 54.112 35.0086 56.3574 35.8515 59.8937C36.3572 62.0829 35.9639 63.3178 33.3227 62.981C32.1427 62.7565 31.0188 62.9249 29.8949 62.9249ZM28.1529 60.1744C28.6024 60.1744 29.1082 60.2867 29.5577 60.1744C30.3444 60.006 31.7493 60.848 31.8617 59.5008C31.9741 58.3781 30.8502 57.5361 29.7263 57.2555C29.1082 57.0871 28.4338 57.1432 27.7595 57.1432C26.2985 57.2555 24.8936 58.0413 24.8936 59.3324C24.9498 61.0164 26.6918 59.7815 27.5909 60.1183C27.7033 60.2305 27.9281 60.1744 28.1529 60.1744Z" fill="#F7F3E8"></path>
<path d="M99.8568 65.114C99.9692 62.5881 101.486 61.0163 104.296 60.6234C105.476 60.455 106.712 60.6234 107.949 60.5111C108.679 60.455 109.747 61.0725 109.972 59.7814C110.14 58.771 109.578 57.9852 108.792 57.4238C107.387 56.4696 105.926 56.638 104.633 57.5922C104.184 57.929 103.959 58.5465 103.509 58.771C102.554 59.164 101.262 59.3885 100.587 58.7149C99.8568 57.9852 100.7 56.9748 101.262 56.3012C102.779 54.2804 106.544 53.4384 109.522 54.3927C112.276 55.2908 113.4 57.3116 113.568 60.1743C113.681 62.7003 112.669 65.507 115.085 67.64C115.366 67.9207 115.479 69.0433 114.861 69.4363C113.849 69.9976 112.444 70.0537 111.714 69.2679C110.59 67.9768 109.916 68.6504 108.848 69.2679C104.577 71.5693 99.6882 69.2679 99.8568 65.114ZM107.612 62.9249C105.87 63.1494 103.734 62.5881 103.397 65.114C103.228 66.798 104.521 67.3032 105.982 67.3032C108.117 67.3032 109.691 66.4051 109.972 64.2159C110.196 62.139 108.398 63.3178 107.612 62.9249Z" fill="#F7F3E8"></path>
<path d="M123.233 70.1661C120.649 69.9416 118.513 69.3802 117.164 67.3033C116.715 66.5736 115.703 65.5071 116.659 64.8896C117.502 64.3283 118.963 63.9915 119.806 65.3387C120.817 67.0227 122.334 67.5279 124.133 67.1349C125.032 66.9665 125.931 66.4613 125.931 65.2825C125.931 64.216 125.088 63.8792 124.301 63.6547C122.84 63.3179 121.379 63.1495 119.918 62.7566C118.345 62.3075 116.996 61.5778 116.659 59.7254C116.322 57.873 116.996 56.4697 118.401 55.2909C121.098 53.1017 125.987 53.4946 128.066 56.1329C128.684 56.8626 129.752 57.9853 128.853 58.715C128.122 59.2763 126.549 59.557 125.594 58.2659C124.526 56.8065 123.121 56.3574 121.435 56.9749C120.649 57.2555 120.087 57.7607 120.087 58.6027C120.087 59.5009 120.761 59.8377 121.604 59.9499C122.784 60.1183 124.02 60.2867 125.2 60.6235C127.336 61.1848 129.359 61.9707 129.415 64.7212C129.471 67.5279 128.01 69.0434 125.425 69.6609C124.582 69.8854 123.795 70.0538 123.233 70.1661Z" fill="#F7F3E8"></path>
<path d="M45.9666 70.1102C41.9769 70.054 39.111 67.921 38.0995 64.4969C37.088 61.0728 38.2118 57.4241 40.853 55.4595C43.6627 53.4387 47.8772 53.4948 50.5746 55.5156C51.0241 55.8524 51.4737 56.2454 51.7546 56.6944C52.3728 57.6487 53.6652 58.9397 52.4852 59.7817C51.6422 60.3992 49.9564 60.5115 48.8887 58.8836C47.4277 56.7505 44.5618 56.5821 42.8198 58.1539C40.9092 59.894 40.9092 63.9917 42.8198 65.7879C44.5618 67.4158 47.3153 67.1351 48.9449 65.1705C49.1135 64.9459 49.2259 64.6653 49.3945 64.4408C50.3498 63.5426 51.6422 63.6549 52.4852 64.1601C53.4966 64.7214 52.6537 65.8441 52.2042 66.5738C50.6869 69.0436 48.3268 69.9418 45.9666 70.1102Z" fill="#F7F3E8"></path>
<path d="M69.0625 62.2516C69.0625 64.0479 68.8939 65.8442 69.1187 67.5843C69.3996 70.1103 67.4328 70.2787 66.4775 69.5489C65.0727 68.5385 64.286 69.2683 63.2183 69.6612C59.1723 71.1206 55.4073 68.9315 55.0701 64.7215C54.8454 61.7465 55.0139 58.7153 54.9577 55.7402C54.9016 54.3369 55.7445 54.3369 56.756 54.3369C57.8236 54.3369 58.498 54.5053 58.498 55.8525C58.4418 58.2662 58.4418 60.7361 58.498 63.1498C58.5542 65.0583 59.1161 66.6861 61.4201 66.9107C63.8364 67.1352 65.2413 65.788 65.466 63.5988C65.747 61.129 65.6908 58.5469 65.6346 56.0209C65.5784 54.6176 66.1404 54.3369 67.4328 54.3369C68.8377 54.3369 69.2311 54.8421 69.1749 56.1332C69.0063 58.1539 69.0625 60.1747 69.0625 62.2516Z" fill="#F7F3E8"></path>
<path d="M95.9232 69.6611C92.6078 69.5489 90.9782 68.0894 90.8096 64.8898C90.6972 63.1497 90.7534 61.3535 90.7534 59.5572C90.7534 58.3784 91.0344 56.9751 89.0676 57.1996C88.0561 57.3119 88.1123 56.4699 88.1685 55.8524C88.2246 55.2911 87.8313 54.2807 88.8428 54.3368C90.8658 54.4491 90.8658 53.2142 90.7534 51.867C90.641 50.4637 91.0344 49.9023 92.5516 49.9023C94.1812 49.9023 94.4622 50.6882 94.2936 51.9793C94.0688 53.7194 94.5184 54.6736 96.4852 54.3368C97.4967 54.1684 97.9462 54.6175 98.0024 55.7402C98.0586 57.0312 97.4967 57.4803 96.3728 57.2558C94.5184 56.919 94.125 57.8171 94.2936 59.4449C94.406 60.6237 94.3498 61.8586 94.2936 63.0936C94.1812 65.1705 94.5184 66.8545 97.2157 66.6861C98.6206 66.5738 98.2834 67.6965 98.2834 68.4262C98.2834 70.5031 96.71 69.3243 95.9232 69.6611Z" fill="#F7F3E8"></path>
<path d="M71.816 62.0269C71.816 60.1745 71.816 58.266 71.816 56.4136C71.816 54.5612 73.7828 53.214 74.6819 54.5051C75.9182 56.2452 76.5363 54.8419 77.4916 54.6735C78.5031 54.4489 79.9641 53.4947 80.4137 55.2909C80.7509 56.6381 80.5823 57.7608 78.5593 57.8169C76.3115 57.873 75.3562 59.5009 75.3 61.6339C75.2438 63.7109 75.2438 65.7317 75.3 67.8086C75.3 68.9312 75.3562 69.7732 73.7828 69.7171C72.4341 69.6609 71.7036 69.4926 71.816 67.9208C71.8722 65.9562 71.816 63.9915 71.816 62.0269Z" fill="#F7F3E8"></path>
<path d="M86.0331 62.0835C86.0331 64.0482 85.9769 66.0128 86.0331 67.9775C86.0893 69.3247 85.6397 69.7176 84.2911 69.7176C82.9424 69.7176 82.4929 69.2686 82.5491 67.9214C82.6052 63.9359 82.6052 59.8944 82.5491 55.9089C82.4929 54.3933 83.3358 54.3933 84.4597 54.3372C85.7521 54.2811 86.0331 54.7863 86.0331 55.9651C85.9769 57.9858 86.0331 60.0628 86.0331 62.0835Z" fill="#F7F3E8"></path>
<path d="M86.5386 50.1273C86.5386 51.5867 85.8081 52.3726 84.5718 52.4848C83.2793 52.5971 82.4364 51.8113 82.324 50.5202C82.2116 49.173 82.886 48.2188 84.4032 48.2188C85.6957 48.2188 86.3138 49.0046 86.5386 50.1273Z" fill="#F7F3E8"></path>
</g>
<defs>
<clipPath id="clip0_170_928">
<rect width="132" height="70.1661" fill="#F7F3E8"></rect>
</clipPath>
</defs>
</svg>