<svg width="206" height="48" viewBox="0 0 206 48" fill="none" xmlns="http://www.w3.org/2000/svg">
<g clip-path="url(#clip0_170_944)">
<path d="M8.15039 29.4533C10.5257 34.0525 13.7859 37.5368 18.6297 39.3021C28.9227 43.0651 40.0075 35.5856 40.7527 24.3895C41.4979 12.5895 32.3692 2.18323 20.4927 1.2541C20.0269 1.20764 19.6078 1.16119 19.1886 0.928903C22.0297 -0.278971 24.9639 -0.139601 27.8515 0.417879C37.4459 2.27615 44.2924 7.61867 47.0869 17.1423C49.8813 26.6659 47.4595 35.121 40.0541 41.7643C30.1337 50.7305 13.9257 46.0384 9.17503 32.9376C8.70929 31.8226 8.47641 30.6147 8.15039 29.4533Z" fill="white"></path>
<path d="M38.3775 15.7948C35.8159 11.9854 32.6954 9.43024 28.5969 8.36174C19.0025 5.89954 9.92039 11.6137 7.6848 21.4625C5.26291 32.2869 11.7834 43.2043 22.5887 46.4098C23.4736 46.6885 24.312 46.9208 25.1969 47.1531C25.1503 47.3854 25.1503 47.6176 25.1037 47.8499C23.1476 47.6641 21.1449 47.7106 19.2353 47.2925C10.2464 45.2484 4.0054 39.9523 1.25749 31.0791C-1.49042 22.2523 0.325993 14.0759 6.84645 7.52552C16.4874 -2.18393 34.8844 2.55465 38.3775 15.7948Z" fill="white"></path>
<path d="M137.768 32.8915C132.738 36.2364 127.847 35.9576 124.68 32.1947C121.513 28.3852 121.653 21.4167 125.006 17.8395C128.173 14.4482 133.203 14.4017 137.768 17.7466C138.932 15.145 139.724 14.8663 143.729 15.4702C143.729 22.5781 144.335 29.686 143.59 36.701C142.705 44.5986 132.784 46.0387 127.987 43.3443C125.938 42.1828 125.006 40.2781 125.658 37.5836C129.198 39.5348 132.877 40.8356 136.324 38.0017C137.535 36.9797 137.861 34.8891 138.56 33.3096C138.28 33.1238 138.047 32.9844 137.768 32.8915ZM133.064 19.8372C130.13 19.8372 127.987 22.1135 127.987 25.2726C127.987 28.4317 130.13 30.708 133.017 30.708C135.951 30.708 138.047 28.4317 138.047 25.2726C138.047 22.0206 136.045 19.8836 133.064 19.8372Z" fill="white"></path>
<path d="M101.253 18.1183C101.253 16.0742 101.253 14.1694 101.253 12.2647C101.253 7.89778 102.185 7.06156 106.889 7.57259C106.889 17.0033 106.889 26.4805 106.889 36.1435C105.119 36.1435 103.303 36.1435 101.393 36.1435C101.3 35.4001 101.16 34.7033 101.021 33.6348C98.6918 36.2364 95.8041 37.2584 92.7768 36.5151C90.7275 36.0041 88.4919 34.8891 87.0481 33.4025C83.4153 29.5931 83.6016 22.2064 87.0947 18.2576C90.4946 14.3553 95.5713 14.2624 101.253 18.1183ZM90.4015 25.9694C90.4015 29.5001 92.6371 31.9623 95.8041 31.9159C98.8315 31.8694 101.16 29.3143 101.16 26.0623C101.16 22.6246 98.7849 20.023 95.711 20.1159C92.6836 20.1623 90.4015 22.671 90.4015 25.9694Z" fill="white"></path>
<path d="M74.2398 23.5067C73.8206 19.3721 70.8399 18.8146 63.8071 21.3697C62.4564 19.0469 62.9222 17.0492 65.2975 16.1665C68.5577 14.9122 71.9576 14.7264 75.311 15.7484C78.0589 16.5847 79.9219 18.5358 80.0617 21.4162C80.2479 26.2476 80.1082 31.1256 80.1082 36.2823C78.0124 35.4925 75.3576 37.7225 74.1001 34.3776C71.4453 36.4217 68.4645 37.165 65.1577 36.2358C61.8975 35.3067 60.314 32.891 60.5468 29.4067C60.7331 26.5264 62.7824 24.3894 65.9961 24.0177C68.744 23.7854 71.4453 23.6925 74.2398 23.5067ZM74.2398 27.3626C72.2837 27.3626 70.281 27.1768 68.3248 27.4555C67.5796 27.5484 66.4618 28.524 66.3687 29.2209C66.2755 30.0571 66.9742 31.7295 67.4865 31.776C69.2097 31.9618 71.0727 31.9154 72.7028 31.3579C74.2864 30.8469 74.7987 29.2209 74.2398 27.3626Z" fill="white"></path>
<path d="M189.047 35.1206C186.346 35.678 184.017 36.4678 181.642 36.5143C177.822 36.6072 175.354 33.9591 175.261 30.2891C175.168 26.6654 177.264 24.3891 181.222 23.9709C183.737 23.7387 186.299 23.6458 188.814 23.5064C188.767 19.4182 185.973 18.8607 178.428 21.3694C177.077 18.8143 177.636 16.7237 180.291 16.1198C183.085 15.4694 186.113 15.1442 188.954 15.4694C192.587 15.8875 194.776 18.582 194.869 22.1591C195.008 26.7119 194.915 31.2646 194.915 35.8174C191.283 36.793 189.559 36.4213 189.047 35.1206ZM188.907 27.4087C186.811 27.4087 184.948 27.2229 183.132 27.5017C182.34 27.5946 181.222 28.4772 181.036 29.2206C180.85 29.9639 181.502 31.6363 181.921 31.7292C183.644 32.008 185.554 32.1473 187.184 31.6363C188.814 31.0788 189.373 29.3599 188.907 27.4087Z" fill="white"></path>
<path d="M170.882 31.1255C171.255 32.4727 171.628 33.7271 172.047 35.1672C169.252 36.8397 166.318 37.3042 163.291 35.957C160.45 34.7027 159.984 32.1475 159.984 29.3601C160.03 23.7389 159.984 18.0712 159.984 12.4499C159.984 7.71132 160.869 6.96802 165.945 7.75778C165.945 10.1271 165.945 12.5428 165.945 14.9121C171.721 15.8877 172 16.12 171.488 20.1617C169.765 20.1617 168.041 20.1617 166.039 20.1617C166.039 23.5531 165.992 26.6657 166.039 29.8247C166.085 31.3113 167.017 31.8688 168.367 31.683C169.206 31.5901 169.997 31.3113 170.882 31.1255Z" fill="white"></path>
<path d="M206 7.61904C206 17.2356 206 26.7127 206 36.3757C204.09 36.3757 202.274 36.3757 200.131 36.3757C200.131 34.8891 200.131 33.5419 200.131 32.1946C200.131 25.5978 200.131 19.0474 200.131 12.4505C200.131 7.61904 200.83 7.0151 206 7.61904Z" fill="white"></path>
<path d="M118.346 15.238C118.346 22.3459 118.346 29.1286 118.346 36.0971C116.39 36.0971 114.527 36.0971 112.431 36.0971C112.431 29.8719 112.338 23.7396 112.525 17.5609C112.571 16.7711 113.922 15.7026 114.9 15.331C115.878 14.9593 117.042 15.238 118.346 15.238Z" fill="white"></path>
<path d="M154.582 15.3767C154.582 22.3452 154.582 29.1743 154.582 36.1428C152.672 36.1428 150.856 36.1428 148.76 36.1428C148.76 32.705 148.76 29.2208 148.76 25.783C148.76 23.4601 148.76 21.1373 148.76 18.8609C148.76 15.8877 149.458 15.2373 152.486 15.2373C153.138 15.2373 153.836 15.3302 154.582 15.3767Z" fill="white"></path>
<path d="M151.74 11.9852C149.877 11.9852 148.573 10.6844 148.527 8.77972C148.48 6.875 149.784 5.4813 151.601 5.43484C153.65 5.38838 154.907 6.64271 154.907 8.73327C154.907 10.7309 153.65 11.9852 151.74 11.9852Z" fill="white"></path>
<path d="M115.365 5.43489C117.321 5.38843 118.532 6.5963 118.579 8.59394C118.625 10.638 117.368 12.0317 115.365 11.9853C113.502 11.9853 112.291 10.6845 112.291 8.68686C112.245 6.73568 113.456 5.48134 115.365 5.43489Z" fill="white"></path>
</g>
<defs>
<clipPath id="clip0_170_944">
<rect width="206" height="47.8504" fill="white"></rect>
</clipPath>
</defs>
</svg>