<svg width="25" height="25" viewBox="0 0 25 25" fill="none" xmlns="http://www.w3.org/2000/svg">
<path d="M12.4883 20.5657C12.8466 20.5738 13.0301 20.7984 13.0381 21.1272C13.054 22.0976 13.0539 23.068 13.0459 24.0383C13.0379 24.3752 12.8386 24.5838 12.4961 24.5999C12.1934 24.6159 11.9543 24.3514 11.9463 23.9905C11.9383 23.5093 11.9464 23.0281 11.9385 22.5549C11.9385 22.0898 11.9305 21.6246 11.9385 21.1594C11.9464 20.7825 12.1617 20.5577 12.4883 20.5657ZM19.5527 17.3811C20.5003 17.3974 21.2248 18.1762 21.2168 19.1545C21.2007 20.1248 20.4443 20.8541 19.4648 20.8381C18.5332 20.8301 17.7765 20.0527 17.7842 19.1145C17.7921 18.152 18.5891 17.3651 19.5527 17.3811ZM5.53516 17.4055C6.44306 17.4216 7.18375 18.2157 7.17578 19.1702C7.16782 20.0924 6.42725 20.8058 5.47168 20.8059C4.57171 20.8059 3.83887 20.0681 3.83887 19.1458C3.83108 18.1514 4.57159 17.3895 5.53516 17.4055ZM5.51953 18.3918C5.11335 18.3838 4.75458 18.7455 4.77051 19.1545C4.78666 19.5312 5.12082 19.8352 5.51074 19.8274C5.90083 19.8194 6.2274 19.4913 6.21973 19.1145C6.21973 18.7296 5.8937 18.4001 5.51953 18.3918ZM19.5205 18.4241C19.1542 18.4161 18.8275 18.729 18.8115 19.0979C18.7956 19.4749 19.0904 19.7879 19.4727 19.804C19.8549 19.82 20.2129 19.4831 20.2051 19.1223C20.213 18.7534 19.8868 18.4241 19.5205 18.4241ZM12.4805 5.69556C12.7828 5.70373 12.934 5.89617 13.0137 6.19263C13.2128 6.88239 13.38 7.59688 13.6826 8.23853C14.5825 10.1632 16.1993 11.1334 18.2061 11.5344C18.6917 11.6387 18.8593 11.7832 18.8594 12.1438C18.8275 12.4165 18.6679 12.5692 18.3652 12.6575C17.7282 12.8339 17.0749 12.9868 16.4697 13.2434C14.8374 13.9413 13.8581 15.2406 13.3086 16.9006C13.1892 17.2695 13.0855 17.6468 13.0059 18.0237C12.9421 18.3281 12.8065 18.5128 12.4883 18.5129C12.1698 18.5129 12.0419 18.3201 11.9463 18.0315C11.6596 17.1733 11.4289 16.2824 11.0068 15.4963C10.1467 13.9004 8.68895 13.0903 6.96875 12.7053C6.84135 12.6733 6.70552 12.6491 6.57812 12.6331C6.29979 12.5929 6.15666 12.4329 6.14062 12.1526C6.1247 11.8558 6.25235 11.6632 6.53906 11.5911C6.85738 11.5109 7.18364 11.4468 7.50195 11.3586C9.90706 10.6529 11.3174 9.01641 11.875 6.57837C11.9069 6.45004 11.9304 6.31314 11.9463 6.18481C12.0021 5.88008 12.1699 5.68754 12.4805 5.69556ZM12.4961 8.14185C11.7076 10.0267 10.4095 11.3506 8.39453 12.1125C10.465 12.8665 11.7237 14.2535 12.4883 16.2825C13.2688 14.2695 14.5274 12.8664 16.582 12.1125C14.5671 11.3506 13.2766 10.0267 12.4961 8.14185ZM3.53613 11.5344C3.92638 11.5424 4.16534 11.7835 4.14941 12.1204C4.1413 12.425 3.89442 12.6573 3.53613 12.6653C3.04235 12.6813 2.54832 12.6731 2.0625 12.6731C1.58473 12.6731 1.10668 12.6811 0.628906 12.6731C0.222905 12.665 0 12.4564 0 12.1116C0.000221851 11.775 0.231048 11.5425 0.628906 11.5344C1.60054 11.5264 2.56449 11.5264 3.53613 11.5344ZM24.4268 11.5344C24.7848 11.5345 25.0075 11.775 25.0156 12.1116C25.0236 12.4243 24.793 12.6571 24.4189 12.6653C23.9092 12.6813 23.407 12.6731 22.9053 12.6731C22.4274 12.6731 21.9494 12.6811 21.4795 12.6731C21.0896 12.665 20.8745 12.4811 20.8584 12.1526C20.8425 11.8077 21.058 11.5503 21.4482 11.5422C22.4357 11.5262 23.4314 11.5264 24.4268 11.5344ZM5.55078 3.34595C6.46665 3.36199 7.19918 4.13958 7.19922 5.09399C7.19125 6.07247 6.45109 6.80997 5.47949 6.802C4.53981 6.79398 3.80681 6.04067 3.80664 5.07837C3.80664 4.0759 4.55538 3.33005 5.55078 3.34595ZM19.5605 3.36938C20.5001 3.40159 21.2005 4.17161 21.1768 5.14185C21.1529 6.08827 20.3965 6.81065 19.4727 6.77856C18.5488 6.75449 17.8002 5.97589 17.832 5.06958C17.8641 4.06724 18.605 3.33731 19.5605 3.36938ZM19.4961 4.37231C19.122 4.38062 18.7961 4.71723 18.7881 5.09399C18.7881 5.48686 19.1379 5.80803 19.5439 5.79224C19.9262 5.7762 20.2532 5.43071 20.2373 5.06177C20.2212 4.6849 19.8703 4.3643 19.4961 4.37231ZM5.47949 4.38794C5.11313 4.39596 4.80273 4.71724 4.80273 5.08618C4.80281 5.455 5.11297 5.7599 5.49512 5.76001C5.86939 5.76803 6.19621 5.44705 6.19629 5.08618C6.19629 4.70925 5.86173 4.37197 5.47949 4.38794ZM12.5117 -0.400146C12.8143 -0.392126 13.0378 -0.12731 13.0537 0.273682C13.0537 0.722807 13.0459 1.17201 13.0459 1.62915V2.98462C13.0379 3.40951 12.8147 3.66622 12.4805 3.65845C12.1619 3.65043 11.9463 3.39346 11.9463 2.99243C11.9383 2.08621 11.9383 1.17991 11.9463 0.273682C11.9463 -0.143279 12.1773 -0.408081 12.5117 -0.400146Z" fill="#340045"></path>
</svg>