<svg width="96" height="97" viewBox="0 0 96 97" fill="none" xmlns="http://www.w3.org/2000/svg">
<g clip-path="url(#clip0_170_973)">
<path d="M95.9998 97C64.0261 97 32.0525 97 0.0787734 97C0.0787734 94.0306 0.0787734 91.1008 0.0787734 88.7649C1.34193 87.7355 2.40772 87.1416 3.11825 86.2706C6.39456 82.0739 9.51298 77.7584 12.7893 73.522C13.3025 72.849 14.3288 72.1759 15.1577 72.1759C19.0261 72.0176 22.934 72.0967 26.8025 72.1363C27.2761 72.1363 28.0656 72.3343 28.1446 72.6114C28.8156 74.4722 29.5261 76.3331 29.763 78.2731C29.8419 79.0649 28.8551 80.0547 28.263 80.8861C26.6051 83.1033 24.8682 85.3204 22.9735 87.7751C26.5261 88.171 29.684 88.7253 31.5393 84.7265C32.0525 86.1122 32.4077 87.0229 32.7235 87.8543C35.684 87.8543 38.4867 87.8543 40.7761 87.8543C41.3682 86.1914 41.8419 84.8057 42.3156 83.42C42.5525 83.4596 42.7498 83.5388 42.9867 83.5784C43.3419 84.6078 43.6182 85.6767 44.0525 86.7061C44.2498 87.1812 44.7235 87.8543 45.1182 87.8939C47.4472 88.0127 49.7761 87.9335 52.3025 87.9335C51.1182 84.0139 50.013 80.5298 48.9867 77.0061C48.3551 74.9078 50.4077 72.1363 52.6182 72.1363C56.2498 72.0967 59.8419 72.2155 63.4735 72.0967C65.013 72.0571 65.684 72.5322 66.0788 73.9971C67.184 78.1939 68.3682 82.351 69.6314 86.5478C69.7893 87.0625 70.3419 87.8939 70.6972 87.8939C73.3419 88.0127 75.9867 87.9731 78.5919 87.9731C78.6314 87.498 78.7104 87.3792 78.6709 87.2604C74.8025 75.5808 70.8946 63.9408 66.9867 52.2612C66.8288 51.8257 66.2367 51.2318 65.8025 51.1922C63.2761 50.9943 61.0261 50.9151 59.1709 53.6073C55.3814 59.1106 51.0393 64.2576 46.8946 69.6025C45.6709 67.7812 45.7104 66.3559 47.0919 64.6931C50.2104 60.9318 53.1314 57.0518 56.1314 53.2114C56.5656 52.6175 56.9603 52.0237 57.3156 51.4694C53.2103 50.2024 50.2893 51.3902 48.434 55.0327C48.3946 55.1514 48.2761 55.2306 48.1972 55.3494C46.8551 57.0518 45.4735 58.7543 43.8946 60.7735C42.9077 57.6853 42.1182 55.0722 41.2104 52.4592C41.0525 51.9841 40.5788 51.2318 40.2235 51.2318C37.8946 51.1131 35.5656 51.1922 33.0788 51.1922C33.2761 52.0237 33.3551 52.5384 33.4735 53.0531C34.8156 57.3686 36.0788 61.7633 37.5788 66.0392C38.3288 68.1376 37.6577 69.3649 35.9209 70.711C35.6446 69.9192 35.3682 69.2857 35.1314 68.6127C33.434 63.6241 31.8156 58.6355 30.0788 53.6469C29.763 52.7363 29.0525 51.311 28.5393 51.311C26.6446 51.3506 24.513 50.242 22.8946 52.38C16.9735 60.14 10.9735 67.8208 5.01298 75.5016C3.47351 77.4812 1.93404 79.4212 0.0392998 81.8363C0.0392998 80.4902 0.0392998 79.8567 0.0392998 79.1837C0.0392998 64.02 0.0392998 48.8563 0.0392998 33.6531C-0.000173929 22.409 0.0392998 11.2045 0.0787734 0C30.1972 0 60.3551 0 90.4735 0C90.2367 0.43551 90.0393 0.950204 89.7235 1.34612C78.9077 15.4012 68.0919 29.4167 57.2761 43.4322C56.2104 44.818 55.184 46.2037 53.9603 47.7873C55.8551 47.7873 57.3551 47.8665 58.8551 47.7478C59.4472 47.7082 60.1972 47.2727 60.5525 46.7976C71.8025 32.3069 83.013 17.7371 94.263 3.16735C94.6972 2.57347 95.2103 2.01918 95.9998 1.06898C95.9998 33.4155 95.9998 65.2078 95.9998 97Z" fill="white"></path>
<path d="M64.1445 67.583C60.8682 67.583 57.8682 67.583 54.3945 67.583C56.684 64.5345 58.8156 61.6839 61.1051 58.5957C62.1314 61.7235 63.0787 64.4949 64.1445 67.583Z" fill="white"></path>
<path d="M26.8024 67.5435C23.5261 67.5435 20.5656 67.5435 17.1313 67.5435C19.4208 64.4949 21.4735 61.7235 23.8024 58.5957C24.8682 61.8026 25.8156 64.6137 26.8024 67.5435Z" fill="white"></path>
<path d="M39.9079 74.2744C41.2895 76.4124 40.8552 78.0356 39.0395 79.4609C37.5 76.8479 37.5395 76.5707 39.9079 74.2744Z" fill="white"></path>
</g>
<defs>
<clipPath id="clip0_170_973">
<rect width="96" height="97" fill="white"></rect>
</clipPath>
</defs>
</svg>