<svg width="31" height="25" viewBox="0 0 31 25" fill="none" xmlns="http://www.w3.org/2000/svg">
<path d="M27.8877 13.0293C29.7572 13.0293 30.9634 14.2705 30.9756 16.1387C30.9876 17.9709 30.9876 19.7918 30.9756 21.624C30.9754 23.7812 29.7697 24.9862 27.623 24.9863H13.667C10.2051 24.9863 6.75484 24.987 3.29297 24.999C1.23034 24.987 0 23.7448 0 21.6836V16.2598C0 14.2588 1.18258 13.041 3.17285 13.041C11.4111 13.029 19.6494 13.0293 27.8877 13.0293ZM3.31738 14.5596C2.11131 14.5596 1.53238 15.1263 1.53223 16.3193C1.53223 18.0913 1.54395 19.8521 1.54395 21.624C1.54405 22.9617 2.01476 23.4434 3.35352 23.4434C7.39421 23.4313 11.4349 23.4316 15.4756 23.4316H27.7188C28.8887 23.4316 29.4442 22.8653 29.4443 21.6963C29.4443 19.9485 29.4437 18.2 29.4316 16.4521C29.4316 15.03 28.9493 14.5596 27.502 14.5596H3.31738ZM25.4756 19.502C26.0545 19.502 26.4284 19.8278 26.4043 20.2979C26.368 20.8763 25.9453 20.9847 25.4629 20.9727C24.5102 20.9727 23.5695 20.9844 22.6289 20.9844C21.6881 20.9844 20.7465 20.9723 19.8057 20.9844C19.2993 20.9963 18.9258 20.8515 18.8896 20.2852C18.8657 19.8032 19.2034 19.5137 19.8184 19.5137C21.7 19.5016 23.5819 19.502 25.4756 19.502ZM5.65723 17.9346C6.21209 17.9346 6.59766 18.3212 6.59766 18.8877C6.59743 19.4419 6.18782 19.8519 5.65723 19.8398C5.12651 19.8278 4.7041 19.3933 4.7041 18.875C4.69213 18.3086 5.10245 17.9225 5.65723 17.9346ZM9.44531 17.9229C9.99995 17.911 10.4101 18.2849 10.4463 18.8271C10.4704 19.3574 10.0361 19.8149 9.51758 19.8271C8.97478 19.8392 8.56417 19.4539 8.54004 18.8994C8.51591 18.3329 8.87839 17.9349 9.44531 17.9229ZM13.2441 17.9111C13.7869 17.9111 14.1851 18.2845 14.1973 18.8389C14.2093 19.3692 13.799 19.803 13.2803 19.8271C12.7497 19.839 12.279 19.3812 12.291 18.8389C12.3032 18.2966 12.6895 17.9233 13.2441 17.9111ZM25.4629 16.9951C26.0901 16.9951 26.4522 17.2841 26.416 17.7422C26.3677 18.2966 25.9939 18.4658 25.4873 18.4658H22.6406C21.6998 18.4658 20.7465 18.4779 19.8057 18.4658C19.2029 18.4657 18.8897 18.2001 18.8896 17.7422C18.8896 17.2842 19.215 16.9952 19.7939 16.9951C21.6876 16.9831 23.5693 16.9831 25.4629 16.9951ZM3.08789 0.0107422C7.23719 -0.0133651 11.3745 0.0107409 15.5117 0.0107422H27.7549C29.733 0.0107422 30.9641 1.20396 30.9883 3.18066C31.0124 5.08509 31.0121 7.00182 31 8.90625C30.9879 10.6902 29.6852 11.9922 27.9121 11.9922C19.6495 12.0042 11.3863 12.0042 3.13574 11.9922C1.31458 11.992 0.0364753 10.7022 0.0244141 8.87012C0.000293426 6.9898 0 5.09744 0 3.20508C0 1.30056 1.18208 0.022817 3.08789 0.0107422ZM3.23242 1.55371C2.1109 1.5538 1.55576 2.1081 1.55566 3.2168C1.5436 5.04885 1.54395 6.86913 1.54395 8.70117C1.54395 9.91863 2.07497 10.4492 3.31738 10.4492C7.38228 10.4372 11.4472 10.4375 15.5 10.4375C19.577 10.4254 23.6661 10.4378 27.7432 10.4258C28.877 10.4258 29.4443 9.85866 29.4443 8.72559V3.42188C29.4443 2.07198 28.9494 1.55376 27.5986 1.55371C19.4807 1.54166 11.3624 1.54166 3.23242 1.55371ZM25.5117 6.67676C26.0907 6.67676 26.4646 7.00255 26.4404 7.47266C26.4041 8.05072 25.9822 8.15946 25.5 8.14746C24.5471 8.15951 23.6059 8.15918 22.665 8.15918C21.7243 8.15918 20.7835 8.14713 19.8428 8.15918C19.3362 8.17123 18.962 8.0265 18.9258 7.45996C18.9018 6.97793 19.2394 6.6885 19.8545 6.68848C21.7362 6.67642 23.618 6.67676 25.5117 6.67676ZM5.70508 5.10938C6.25986 5.10938 6.64638 5.49512 6.64648 6.06152C6.64648 6.61601 6.23582 7.02573 5.70508 7.01367C5.17452 7.00145 4.75298 6.56798 4.75293 6.0498C4.72881 5.49542 5.13832 5.10952 5.70508 5.10938ZM9.48145 5.10938C10.0361 5.09753 10.4462 5.47139 10.4824 6.01367C10.5065 6.53184 10.0722 7.00142 9.55371 7.01367C9.01092 7.02573 8.60031 6.64041 8.57617 6.08594C8.55205 5.5194 8.91452 5.12143 9.48145 5.10938ZM13.2803 5.09766C13.823 5.09766 14.2212 5.47107 14.2334 6.02539C14.2455 6.55577 13.8351 6.98956 13.3164 7.01367C12.7858 7.02554 12.3151 6.56772 12.3271 6.02539C12.3393 5.4832 12.7257 5.09778 13.2803 5.09766ZM25.5 4.16895C26.1271 4.16903 26.4883 4.45901 26.4521 4.91699C26.4038 5.47119 26.0299 5.63965 25.5234 5.63965C24.5586 5.63965 23.6175 5.6517 22.6768 5.63965C21.7361 5.63965 20.7834 5.6517 19.8428 5.63965C19.2398 5.63965 18.9259 5.37484 18.9258 4.91699C18.9258 4.45904 19.2513 4.16907 19.8301 4.16895C21.7239 4.15689 23.6062 4.15689 25.5 4.16895Z" fill="#570072"></path>
</svg>