<svg width="25" height="25" viewBox="0 0 25 25" fill="none" xmlns="http://www.w3.org/2000/svg">
<path d="M12.7566 0.00012207C19.3504 0.0665231 24.9666 5.90982 24.9998 12.4835C25.0328 18.609 20.0464 24.9835 12.4089 25.0001C5.28503 24.9171 -0.0664793 19.4058 -0.000244141 12.2179C0.0660243 5.37865 5.74873 -0.0827738 12.7566 0.00012207ZM12.4421 1.51086C6.37852 1.51086 1.42459 6.49083 1.44116 12.5499C1.45778 18.5758 6.39515 23.4728 12.4587 23.4728C18.4228 23.4727 23.4762 18.5425 23.4597 12.7159C23.4431 6.49089 18.5388 1.51093 12.4421 1.51086ZM12.4089 5.66028C13.0713 5.66035 13.1705 6.14191 13.1375 6.62317C13.0878 7.15434 13.4029 7.27068 13.7839 7.48645C14.3472 7.80186 14.8776 8.21696 15.3083 8.68176C15.474 8.86436 15.3083 9.34588 15.2751 9.69446C14.9107 9.62806 14.4465 9.67784 14.2146 9.46204C13.403 8.68201 12.525 8.35012 11.614 8.83118C11.1833 9.04696 10.6863 9.57831 10.6531 10.0099C10.6199 10.4249 11.067 11.0392 11.4646 11.2716C12.177 11.67 13.0053 11.8195 13.8005 12.1017C15.0265 12.5333 15.8221 13.3303 15.8552 14.7081C15.8883 16.036 15.2088 17.0822 13.8835 17.547C13.3535 17.7296 13.1045 17.9282 13.1541 18.5255C13.2037 19.0235 12.9556 19.4219 12.4089 19.422C11.8291 19.422 11.6795 18.9903 11.7126 18.4923C11.7622 17.9615 11.514 17.7627 11.0339 17.5636C10.4541 17.298 9.94013 16.8497 9.45972 16.4015C9.09529 16.0529 8.92981 15.5714 9.44312 15.1896C9.92357 14.8244 10.2885 15.0568 10.6199 15.4884C11.3323 16.4011 12.4092 16.7168 13.4197 16.1691C13.9001 15.9035 14.2148 15.3555 14.7615 14.7745C14.1651 14.2268 13.8004 13.7286 13.3035 13.4796C12.6739 13.1476 11.9446 13.0314 11.2654 12.799C9.92356 12.3341 9.195 11.4375 9.16187 10.2257C9.12876 8.96413 9.80819 7.95125 11.1335 7.46985C11.5805 7.30387 11.7292 7.08782 11.696 6.63977C11.663 6.1419 11.7464 5.66028 12.4089 5.66028Z" fill="#5E563C"></path>
</svg>