<svg width="250" height="100" viewBox="0 0 250 100" fill="none" xmlns="http://www.w3.org/2000/svg">
<g clip-path="url(#clip0_170_1007)">
<path d="M142.16 38.2039C139.872 38.2039 135.83 38.2039 131.33 38.2039C131.712 33.3333 133.771 29.6042 137.66 27.0928C145.821 21.6894 155.049 21.0806 164.354 21.9177C170.531 22.5266 176.48 24.1247 181.59 28.2343C181.056 27.0167 180.522 25.799 179.683 23.8964C184.411 23.8964 188.759 23.6681 193.106 24.0486C194.097 24.1247 195.089 26.1034 195.775 27.3972C201.8 39.3454 207.825 51.3698 213.774 63.3942C214.155 64.1552 214.613 64.9162 215.375 66.3622C217.206 62.7853 218.884 59.8173 220.409 56.697C225.443 46.6514 230.4 36.4535 235.586 26.4839C236.196 25.2663 238.103 24.1247 239.476 23.9725C242.679 23.592 246.034 23.8203 250 23.8203C246.645 30.5174 243.518 36.6818 240.391 42.8462C231.544 60.1978 222.544 77.5494 213.85 94.9771C212.096 98.554 210.189 100.304 206.071 99.7716C203.478 99.4672 200.809 99.6955 197.377 99.6955C200.504 93.7595 203.097 88.3561 206.147 83.1811C208.13 79.8325 208.054 77.1689 206.147 73.8203C199.893 62.6331 194.021 51.2937 187.996 40.0304C187.538 39.1932 187.081 38.3561 186.318 37.1384C186.318 51.1415 186.318 64.5357 186.318 78.2343C182.886 78.2343 179.302 78.2343 175.336 78.2343C175.107 76.1034 174.878 74.0486 174.649 71.8416C174.268 71.9177 173.887 71.9177 173.658 72.0699C163.667 82.0395 151.693 82.1156 139.262 78.691C131.94 76.7123 128.661 72.146 126.526 62.8614C121.645 72.6788 114.476 78.691 103.798 80.1369C93.4261 81.5068 84.1979 79.1476 76.0375 71.4611C75.8087 73.9725 75.5799 76.0273 75.3511 78.3104C71.3852 78.3104 67.5719 78.3104 63.3773 78.3104C63.3773 70.3196 63.3773 62.557 63.3773 54.5661C46.5988 54.5661 30.2016 54.5661 13.4231 54.5661C13.8044 60.6544 16.0161 65.6773 21.0497 69.1019C30.2016 75.2663 41.5652 73.0593 48.4292 64.003C48.8868 63.3941 49.8019 62.7853 50.4883 62.7853C53.9966 62.6331 57.5048 62.7092 61.3944 62.7092C60.708 68.6453 57.4285 72.3744 53.1576 75.2663C42.1753 82.6483 21.9648 82.4961 11.1351 74.6575C8.46576 72.6788 6.02525 70.0152 4.3474 67.1232C-7.09251 47.7168 4.3474 24.8097 26.6171 22.0699C32.9472 21.3089 39.0484 21.6894 45.0734 23.5159C53.3864 26.1795 59.0301 31.4307 61.7757 39.5738C62.2333 40.8675 62.6146 42.1613 63.6061 43.3028C63.6061 28.9193 63.6061 14.6118 63.6061 -0.0761719C67.8007 -0.0761719 71.614 -0.0761719 75.8849 -0.0761719C75.8849 9.96949 75.8849 19.939 75.8849 30.6696C86.791 21.0806 98.6122 19.2541 111.044 24.2008C124.314 29.5281 128.966 40.5631 128.356 54.9467C135.83 45.2815 146.126 44.6727 156.422 44.2922C162.142 44.0639 167.785 44.2922 173.429 44.2922C174.802 38.28 172.056 33.105 166.641 31.2024C161.455 29.3759 156.041 28.9954 151.007 31.1263C148.109 32.4961 145.821 35.2359 142.16 38.2039ZM95.7141 72.0699C107.383 72.0699 115.467 63.3941 115.314 50.9893C115.162 38.6605 107.307 30.3652 95.7904 30.2891C84.1217 30.213 76.0375 38.7366 76.0375 51.1415C75.9612 63.6225 84.0454 72.0699 95.7141 72.0699ZM174.039 52.5874C164.43 52.8919 155.049 51.7503 145.973 54.7945C142.923 55.7838 140.787 57.8386 140.406 61.3394C140.025 65.3728 141.321 68.7214 144.982 70.5479C152.075 74.0486 159.32 73.4398 166.031 69.6346C172.514 65.9817 173.81 59.8173 174.039 52.5874ZM50.2595 45.8903C49.4206 35.1597 42.0228 29.452 30.7354 30.1369C20.7446 30.7457 13.8044 37.8234 14.3382 45.8903C26.2357 45.8903 38.1332 45.8903 50.2595 45.8903Z" fill="white"></path>
</g>
<defs>
<clipPath id="clip0_170_1007">
<rect width="250" height="100" fill="white"></rect>
</clipPath>
</defs>
</svg>