<svg width="1920" height="1080" viewBox="0 0 1920 1080" fill="none" xmlns="http://www.w3.org/2000/svg">
<g clip-path="url(#clip0_265_302)">
<rect width="1920" height="1080" fill="#FDF5EA"></rect>
<g clip-path="url(#clip1_265_302)">
<path d="M0.459229 437.925C12.8552 433.676 24.9069 427.935 37.6472 425.524C54.2899 422.424 71.3918 421.506 88.3789 420.817C110.301 419.783 132.453 420.817 154.261 419.209C181.693 417.257 207.862 410.483 228.522 390.274C242.755 376.381 251.248 358.814 258.594 340.672C265.596 323.334 272.023 305.767 279.713 288.773C284.878 277.291 292.224 266.843 303.013 259.494C313.113 252.72 323.788 251.686 335.266 255.705C351.564 261.446 363.96 272.928 376.356 284.41C390.244 297.27 403.443 310.934 417.791 323.219C453.831 353.991 494.692 360.421 539.57 346.757C567.116 338.376 592.597 325.401 618.651 313.345C647.92 299.796 677.762 288.773 709.785 283.377C764.534 274.191 820.316 299.452 848.436 347.217C866.456 377.759 873.343 410.712 870.244 445.847C866.801 486.838 855.897 525.877 835.581 561.931C822.267 585.584 803.673 604.185 779.914 616.7C756.614 628.986 732.855 640.238 708.752 650.802C658.938 672.618 608.895 694.089 558.508 714.757C529.354 726.698 498.938 735.195 467.719 739.673C416.184 747.021 369.584 734.85 328.494 702.471C302.898 682.377 282.009 657.691 262.267 632.086C249.068 614.978 235.868 597.87 221.865 581.565C212.453 570.657 200.631 562.16 185.825 559.634C162.41 555.501 144.735 574.561 150.588 597.64C155.065 615.322 165.969 629.215 178.365 641.846C196.729 660.561 216.012 678.359 233.917 697.419C254.577 719.464 271.449 744.151 281.205 773.2C289.354 797.542 285.337 818.899 267.547 837.729C250.674 855.526 230.244 868.616 210.273 882.509C176.987 905.588 143.128 927.978 110.875 952.32C69.3258 983.666 33.1708 1020.75 1.83656 1062.55C1.49223 1063.01 1.03312 1063.35 0.688784 1063.81" stroke="#C4BCB1" stroke-miterlimit="10"></path>
<path d="M1919.54 876.538C1894.06 861.382 1876.96 838.877 1865.6 812.124C1855.04 786.978 1846.54 761.029 1836.21 735.769C1812.8 678.129 1770.44 642.649 1709.61 629.904C1684.94 624.737 1660.03 620.719 1635.24 616.241C1594.26 609.007 1568.32 584.665 1555.47 545.741C1548.58 525.073 1542.73 504.061 1536.07 483.279C1519.54 432.643 1484.07 401.756 1434.03 386.37C1396.5 374.774 1358.16 371.214 1319.14 373.281C1283.44 375.118 1248.55 380.744 1214.92 393.145C1186.57 403.593 1160.98 418.405 1141.12 441.943C1121.61 465.137 1110.7 492.12 1107.03 522.088C1103.59 549.3 1106 576.054 1117.47 601.314C1125.97 619.915 1138.59 634.842 1159.71 638.171C1172.11 640.123 1185.31 639.779 1197.82 638.057C1232.25 633.349 1266.34 626 1301.35 627.378C1339 628.871 1374.81 636.794 1406.48 658.495C1428.75 673.766 1443.9 694.778 1455.61 718.66C1471.56 751.269 1481.78 785.83 1486.71 821.769C1489.35 841.174 1491.19 860.923 1491.19 880.557C1491.19 927.059 1474.55 967.361 1442.18 1001.12C1424.05 1020.06 1406.14 1039.12 1388.58 1058.53C1382.96 1064.84 1378.94 1072.65 1374.23 1079.77" stroke="#C4BCB1" stroke-miterlimit="10"></path>
<path d="M737.331 1079.77C740.086 1065.42 744.103 1051.07 745.251 1036.6C748.465 998.133 736.987 963.458 715.753 931.652C693.486 898.24 662.726 874.931 627.489 856.904C615.782 850.934 603.845 845.193 592.597 838.418C587.547 835.433 582.956 830.725 579.971 825.673C574.692 816.487 578.135 807.532 583.644 799.379C593.859 784.223 608.092 773.085 622.669 762.637C656.758 738.295 693.946 719.694 733.314 705.686C768.321 693.17 803.902 682.148 839.369 671.01C870.244 661.25 899.053 648.391 920.976 623.36C938.881 603.037 951.851 579.843 961.722 554.812C975.38 520.021 982.611 484.083 980.43 446.766C977.676 399.23 962.181 355.713 936.471 315.871C906.973 270.287 868.407 234.463 820.545 208.973C782.095 188.535 741.004 179.235 697.389 182.22C669.727 184.172 643.558 192.209 617.733 202.199C598.795 209.547 579.397 215.518 558.967 216.551C513.63 218.733 479.311 198.869 454.519 161.897C438.565 138.129 430.646 111.376 427.317 83.13C423.989 55.2286 426.399 27.9014 433.286 0.688965" stroke="#C4BCB1" stroke-miterlimit="10"></path>
<path d="M1919.54 148.577C1887.75 154.318 1856.3 161.208 1825.77 172.116C1790.76 184.631 1758.51 203.002 1726.14 220.914C1692.4 239.63 1658.08 257.083 1620.43 267.187C1588.75 275.569 1556.61 281.539 1523.9 281.654C1475.12 281.884 1426.46 280.621 1377.68 279.932C1355.52 279.587 1333.37 279.013 1311.1 278.324C1274.61 277.176 1238.11 276.372 1201.95 270.631C1151.79 262.594 1106.57 242.96 1067.43 210.81C1030.47 180.498 994.778 148.692 958.967 117.117C920.287 82.7854 881.951 48.2245 843.615 13.7784C838.91 9.64486 834.778 4.93722 830.301 0.459229" stroke="#C4BCB1" stroke-miterlimit="10"></path>
<path d="M966.887 0.459229C1011.99 62.2326 1067.09 111.605 1139.97 138.358C1169.81 149.381 1200.92 153.974 1232.6 155.122C1268.18 156.385 1303.64 153.515 1339 149.955C1408.55 142.951 1478.11 135.947 1547.78 128.943C1585.77 125.154 1623.87 122.169 1661.29 113.787C1713.97 102.075 1757.47 74.8628 1793.97 35.7091C1804.53 24.4567 1814.18 12.2857 1824.16 0.459229" stroke="#C4BCB1" stroke-miterlimit="10"></path>
<path d="M794.72 1079.77C798.967 1063.58 804.247 1047.51 807.116 1030.97C812.855 998.248 809.297 965.639 800.803 933.833C795.294 913.166 787.834 893.072 781.291 872.749C776.585 857.937 772.224 843.125 773.716 827.28C776.011 802.364 789.211 784.567 809.986 772.052C829.842 759.996 851.994 755.058 874.835 752.532C924.189 747.136 972.511 753.91 1020.26 765.737C1056.76 774.807 1079.02 798.92 1090.04 834.284C1100.26 866.893 1100.83 900.191 1097.27 933.719C1094.06 964.72 1089.47 995.607 1087.63 1026.61C1086.6 1044.18 1089.7 1061.97 1090.96 1079.77" stroke="#C4BCB1" stroke-miterlimit="10"></path>
<path d="M1919.54 1016.62C1916.67 1013.63 1913.69 1010.76 1910.93 1007.66C1891.99 986.077 1868.01 971.839 1842.53 959.439C1827.26 951.975 1812.22 943.938 1798.22 934.408C1778.36 920.859 1764.94 901.454 1754.26 880.098C1745.31 862.186 1737.16 843.815 1727.75 826.132C1723.73 818.439 1718.11 811.321 1712.02 805.12C1688.72 781.467 1656.7 780.893 1631.91 803.168C1612.97 820.162 1604.02 842.322 1600.8 866.664C1598.85 881.591 1598.62 896.747 1598.97 911.788C1599.66 948.875 1598.05 985.618 1585.42 1020.98C1578.54 1040.5 1568.55 1058.18 1555.93 1074.49C1554.66 1076.1 1553.51 1077.93 1552.25 1079.54" stroke="#C4BCB1" stroke-miterlimit="10"></path>
<path d="M1919.54 707.753C1910.24 696.959 1899.8 686.97 1891.76 675.373C1883.16 662.858 1876.5 648.965 1869.27 635.531C1848.49 596.147 1816.47 570.887 1773.89 558.601C1766.77 556.534 1759.77 553.779 1753.11 550.564C1727.17 538.393 1714.55 517.151 1713.06 489.135C1711.22 456.066 1723.96 427.935 1744.05 402.675C1770.9 368.918 1806.37 347.446 1846.2 332.405C1867.66 324.253 1889.81 318.512 1912.65 315.526C1914.95 315.182 1917.25 315.297 1919.43 315.182" stroke="#C4BCB1" stroke-miterlimit="10"></path>
<path d="M994.433 1079.77C995.351 1064.15 996.614 1048.54 997.303 1032.81C998.91 997.444 999.598 962.08 989.842 927.519C985.71 912.707 979.397 898.814 969.412 886.872C961.377 877.227 951.621 869.994 939.569 866.319C916.27 859.201 894.577 872.06 886.542 897.436C881.951 911.903 881.836 926.715 881.951 941.756C882.41 976.317 882.984 1010.99 882.869 1045.55C882.869 1056.92 880.803 1068.4 879.656 1079.77" stroke="#C4BCB1" stroke-miterlimit="10"></path>
<path d="M0.459229 566.523C13.1995 582.943 25.1364 600.166 39.0245 615.552C59.2254 638.056 80.8036 659.183 101.808 680.884C115.926 695.467 129.699 710.278 140.373 727.731C158.164 756.896 157.245 786.06 140.373 815.224C126.37 839.451 107.202 859.086 86.1981 877.112C58.7663 900.651 30.7605 923.385 2.86956 946.464C2.18089 947.038 1.26267 947.382 0.459229 947.727" stroke="#C4BCB1" stroke-miterlimit="10"></path>
<path d="M0.459229 315.067C44.3043 317.249 87.0016 311.508 128.436 296.925C164.247 284.18 187.891 258.575 202.353 224.014C213.027 198.639 218.996 172.23 221.98 145.018C225.653 111.49 227.948 77.6185 240.459 45.8133C246.657 30.3125 254.806 15.6155 262.152 0.459229" stroke="#C4BCB1" stroke-miterlimit="10"></path>
<path d="M386.112 1079.77C416.528 1020.18 462.209 979.073 528.78 964.491C564.361 956.683 598.221 961.965 627.145 985.618C656.298 1009.62 665.94 1040.73 657.561 1077.47C657.446 1078.16 657.217 1078.97 657.102 1079.77" stroke="#C4BCB1" stroke-miterlimit="10"></path>
<path d="M110.646 0.459229C101.004 24.227 89.2971 46.7318 73.6873 67.2847C55.0934 91.7414 32.7117 111.376 3.21389 121.595C2.29567 121.939 1.37745 121.939 0.459229 122.054" stroke="#C4BCB1" stroke-miterlimit="10"></path>
<path d="M471.277 617.044C477.245 616.356 488.723 615.667 499.971 613.829C540.258 607.17 578.02 592.932 614.175 574.216C648.838 556.304 681.09 534.948 707.948 506.243C718.967 494.416 728.608 481.786 734.232 466.285C742.496 443.436 733.199 424.72 710.014 418.061C693.486 413.238 676.729 414.272 659.971 416.568C630.129 420.702 601.779 430.806 573.544 440.68C528.78 456.296 483.328 460.889 436.499 451.933C418.479 448.488 400.459 445.388 382.209 443.206C356.04 440.106 336.987 455.148 332.166 480.982C326.657 510.147 334.806 536.096 351.334 559.519C379.11 599.018 418.135 616.815 471.277 617.044Z" stroke="#C4BCB1" stroke-miterlimit="10"></path>
</g>
</g>
<defs>
<clipPath id="clip0_265_302">
<rect width="1920" height="1080" fill="white"></rect>
</clipPath>
<clipPath id="clip1_265_302">
<rect width="1920" height="1080" fill="white"></rect>
</clipPath>
</defs>
</svg>