<svg width="25" height="25" viewBox="0 0 25 25" fill="none" xmlns="http://www.w3.org/2000/svg">
<path d="M7.04297 9.6228C7.37625 9.48402 7.73738 9.61395 7.84863 10.0212C7.95977 10.4289 7.71912 10.6333 7.36719 10.7908C7.1079 10.9019 6.84829 11.0777 6.64453 11.2722C5.3107 12.588 3.95844 13.8672 2.68945 15.2478C1.37415 16.6748 0.947671 18.3892 1.5127 20.2703C2.04069 22.0215 3.227 23.1521 5.01465 23.5505C6.88556 23.9674 8.53449 23.4761 9.90527 22.1326C11.3873 20.6871 12.8417 19.2133 14.2959 17.74C14.4995 17.5362 14.6663 17.2859 14.7959 17.0359C14.9626 16.7025 15.2033 16.5732 15.5459 16.6658C15.8886 16.7677 16.0648 17.0641 15.9629 17.3884C15.8518 17.7497 15.7036 18.1388 15.4443 18.3982C13.7956 20.0939 12.1555 21.7986 10.4326 23.4109C9.26571 24.5134 7.78433 24.9952 6.92285 25.0046C2.05994 25.0046 -0.858149 21.1409 0.225586 17.1658C0.559047 15.9427 1.16111 14.8951 2.05957 14.0056C3.26363 12.8289 4.42194 11.6057 5.64453 10.4568C6.03352 10.0956 6.5522 9.83586 7.04297 9.6228ZM12.3965 8.3728C13.508 7.3072 15.3236 7.30711 16.4629 8.29858C17.5558 9.24376 17.7594 10.995 16.9072 12.2644C16.7221 12.5422 16.4907 12.7922 16.25 13.033C15.0829 14.2004 13.9068 15.3591 12.7305 16.5173C12.0728 17.1845 11.2941 17.5178 10.127 17.5271C9.21006 17.4992 8.275 16.9802 7.76562 15.8591C7.21917 14.6268 7.40427 13.4224 8.30273 12.4587C9.61791 11.0504 10.998 9.707 12.3965 8.3728ZM15.7129 9.36401C15.1108 8.72468 14.0179 8.63199 13.3232 9.28979C11.9246 10.6149 10.5531 11.977 9.22852 13.3669C8.71929 13.8951 8.59874 14.5994 8.92285 15.3035C9.20999 15.9243 9.72022 16.2298 10.6465 16.2576C10.8598 16.1464 11.3596 16.026 11.6836 15.7205C13.0451 14.4418 14.3601 13.1167 15.666 11.7917C16.3514 11.0876 16.3426 10.0404 15.7129 9.36401ZM14.4902 1.72827C16.9912 -0.662162 20.9829 -0.550395 23.3818 1.92358C25.0398 3.62856 25.4666 6.50104 24.4199 8.75269C23.9661 9.73476 23.3082 10.5501 22.5303 11.3005C21.3632 12.4217 20.2326 13.5895 19.084 14.7292C18.7321 15.0719 18.3339 15.3589 17.8154 15.2664C17.6394 15.2386 17.4076 15.0528 17.3613 14.8953C17.3153 14.7285 17.4174 14.4605 17.5469 14.3308C18.2508 13.673 19.0104 13.0707 19.7051 12.3943C20.6036 11.5325 21.5116 10.652 22.3359 9.72534C23.6049 8.2891 24.2802 6.1851 23.3262 4.04468C22.6035 2.38631 20.7974 1.21855 18.7783 1.25562C17.4446 1.25571 16.1755 1.81167 15.1104 2.84937C13.7209 4.21149 12.3499 5.59226 10.9883 6.98218C10.7475 7.23234 10.5529 7.53824 10.377 7.83472C10.2196 8.10327 10.0256 8.2796 9.71094 8.18726C9.38685 8.09463 9.19224 7.83517 9.27539 7.52026C9.37724 7.15902 9.51571 6.76019 9.76562 6.50073C11.3218 4.88843 12.8693 3.27571 14.4902 1.72827Z" fill="#3D0051"></path>
</svg>