<svg width="26" height="26" viewBox="0 0 26 26" fill="none" xmlns="http://www.w3.org/2000/svg">
<path d="M3.09219 2.96924C6.82183 -0.652086 12.5616 -0.9176 16.6195 2.24854H16.6186C20.2069 5.01201 22.4066 11.23 17.7709 16.9058C20.0674 19.1027 22.3068 21.2619 24.5844 23.4214L24.7416 23.5708C24.8965 23.7234 25.0387 23.8851 25.1127 24.0581C25.1629 24.1755 25.1822 24.3007 25.1527 24.4321C25.1234 24.5626 25.0462 24.6943 24.9125 24.8306L24.9135 24.8315C24.7694 24.9826 24.6262 25.0707 24.4848 25.1069C24.343 25.1431 24.2066 25.1265 24.0775 25.0776C23.8232 24.9812 23.5898 24.7559 23.3803 24.5503C21.3031 22.5123 19.2263 20.4561 17.1303 18.4185C16.9672 18.2584 16.7863 18.0981 16.6039 17.937C11.2788 21.9228 5.09536 19.9895 2.14493 16.2622C-0.967188 12.336 -0.579485 6.55268 3.09219 2.96924ZM10.2807 1.65869C5.48124 1.67756 1.69593 5.44773 1.69571 10.231C1.69571 14.8248 5.49947 18.5396 10.2231 18.5396C14.9262 18.5395 18.7883 14.6756 18.7885 10.0054C18.7885 5.39237 14.9847 1.65869 10.2807 1.65869Z" fill="#5E563C" stroke="#5E563C" stroke-width="0.1"></path>
</svg>