<svg width="25" height="25" viewBox="0 0 25 25" fill="none" xmlns="http://www.w3.org/2000/svg">
<g clip-path="url(#clip0_212_1793)">
<path d="M-1.20354e-05 12.4569C0.028823 5.61425 5.68049 -0.019145 12.4856 4.89026e-05C19.3675 0.0288397 24.9904 5.64304 25 12.4185C25.0192 19.1843 19.5117 24.9521 12.6297 24.9905C5.61321 25.0384 -0.0288471 19.3667 -1.20354e-05 12.4569ZM12.4663 23.7141C18.7043 23.7045 23.7505 18.6469 23.7312 12.3993C23.7216 6.34362 18.5698 1.23805 12.524 1.25725C6.27642 1.28604 1.20145 6.37241 1.25912 12.6392C1.31679 18.6373 6.24759 23.6949 12.4663 23.7141Z" fill="#596C01"></path>
<path d="M15.2633 14.7988C15.2633 14.3573 15.2633 13.9159 15.2633 13.4744C15.2633 11.5838 15.2729 9.70281 15.2633 7.81221C15.2633 7.45713 15.3402 7.29398 15.7439 7.30357C17.0895 7.32277 16.9165 7.15002 16.9165 8.42642C16.9261 11.2767 16.9165 14.1174 16.9165 16.9677C16.9165 17.6491 16.9069 17.5819 16.2629 17.6683C15.4459 17.7834 15.023 17.3708 14.5809 16.7853C13.0622 14.77 11.5051 12.7738 9.96726 10.7777C9.85192 10.6337 9.72697 10.4898 9.5059 10.2306C9.5059 11.0752 9.5059 11.7853 9.5059 12.4955C9.5059 14.0502 9.49629 15.5953 9.51551 17.15C9.52513 17.5531 9.39056 17.6683 8.99648 17.6683C7.87192 17.6491 7.87192 17.6683 7.87192 16.555C7.87192 13.6759 7.88153 10.7969 7.8623 7.91778C7.8623 7.45713 7.99687 7.33237 8.45823 7.29398C9.17911 7.2364 9.61163 7.49551 10.0345 8.08093C11.582 10.2114 13.2064 12.294 14.8019 14.3957C14.9173 14.5493 15.0422 14.6932 15.1576 14.8468C15.1864 14.818 15.2249 14.8084 15.2633 14.7988Z" fill="#596C01"></path>
</g>
<defs>
<clipPath id="clip0_212_1793">
<rect width="25" height="25" fill="white"></rect>
</clipPath>
</defs>
</svg>