<svg width="176" height="36" viewBox="0 0 176 36" fill="none" xmlns="http://www.w3.org/2000/svg">
<g clip-path="url(#clip0_170_962)">
<path d="M-0.000265064 0.0772814C2.23902 0.0772814 4.43902 0.116158 6.67831 0.0384045C7.85688 -0.000472413 8.56402 0.388297 9.23188 1.32134C13.3176 7.07512 17.5212 12.7511 21.7247 18.5438C22.1569 17.9218 21.9605 17.3386 21.9605 16.7943C21.9605 11.6626 21.9997 6.56972 21.9605 1.43797C21.9605 0.388297 22.1569 -0.0782262 23.3355 -0.000472414C25.1426 0.116158 26.989 0.116158 28.8355 -0.000472414C30.1319 -0.0782262 30.2497 0.46605 30.2497 1.5546C30.2105 12.4401 30.2105 23.2868 30.2497 34.1723C30.2497 35.4553 29.8176 35.6108 28.5997 35.8051C23.7676 36.5827 20.664 34.911 18.2283 30.5956C15.7926 26.2026 12.5319 22.276 9.62474 18.155C9.27116 17.6496 8.87831 17.1831 8.24974 16.3278C8.24974 22.4315 8.17116 28.1075 8.28902 33.7835C8.32831 35.3775 7.89616 35.9218 6.24616 35.8051C4.16402 35.6496 2.08188 35.8051 -0.0395508 35.844C-0.000265064 23.9088 -0.000265064 11.9736 -0.000265064 0.0772814Z" fill="white"></path>
<path d="M176 35.8441C173.643 35.8052 171.286 35.7664 168.928 35.8052C167.907 35.8441 167.593 35.4942 167.593 34.4834C167.632 23.4035 167.632 12.3625 167.593 1.28257C167.593 0.232893 167.907 -0.039245 168.928 -0.000368107C171.286 0.0773857 173.643 0.0385088 176 0.0385088C176 11.9737 176 23.9089 176 35.8441Z" fill="white"></path>
<path d="M158.085 33.2781C152.271 37.5545 144.335 35.4163 140.682 31.1398C136.282 25.9303 136.439 17.3386 141.114 12.2846C145.278 7.77484 152.703 6.88067 157.693 10.3407C157.771 10.263 157.928 10.1852 157.928 10.1074C158.046 6.72516 158.046 6.68628 161.425 6.72516C162.957 6.72516 165 6.06425 165.943 6.9973C166.885 7.93034 166.218 9.95194 166.218 11.4681C166.257 18.9714 166.178 26.4746 166.257 33.9779C166.257 35.2997 165.943 35.8051 164.568 35.6884C163.075 35.5718 161.543 35.5718 160.05 35.6884C158.4 35.8051 157.496 35.4163 158.085 33.2781ZM144.885 22.0038C144.885 25.736 147.4 28.3018 151.014 28.3407C154.51 28.3796 157.103 25.6582 157.064 21.926C157.025 18.1161 154.589 15.628 150.935 15.6668C147.321 15.628 144.885 18.1938 144.885 22.0038Z" fill="white"></path>
<path d="M49.7359 23.7145C46.9859 23.7145 44.2359 23.7534 41.4859 23.7145C40.4645 23.7145 39.9145 23.7534 40.3073 25.0752C40.8966 27.0968 42.0359 28.4186 44.0788 28.8074C46.6323 29.235 49.1073 29.0795 50.6788 26.6303C51.1895 25.8528 51.6609 25.6195 52.5252 25.6584C54.2931 25.6972 56.0609 25.6972 57.8288 25.6584C58.8502 25.6195 59.0073 25.8528 58.6931 26.8636C56.9645 32.3841 51.8966 36.0385 45.6895 35.8052C40.1502 35.572 35.4359 33.5893 32.9609 28.3409C30.4073 22.8592 30.5645 17.3387 34.1788 12.3625C37.8323 7.30848 43.1359 5.79228 49.1073 7.19185C54.8038 8.51366 57.7109 12.5957 58.9288 18.0385C59.2431 19.4381 59.3216 20.8376 59.3609 22.2761C59.4002 23.5201 58.9288 23.7923 57.7895 23.7534C55.1181 23.6368 52.4073 23.7145 49.7359 23.7145ZM45.1788 17.8441C46.6323 17.8441 48.0466 17.8441 49.5002 17.8441C50.1681 17.8441 50.4431 17.6886 50.2859 16.9499C49.8538 14.9672 47.8109 13.451 45.4538 13.451C42.9788 13.451 40.8573 14.9672 40.3859 16.9111C40.1895 17.6886 40.4252 17.8441 41.0931 17.8441C42.4288 17.8441 43.8038 17.8441 45.1788 17.8441Z" fill="white"></path>
<path d="M114.636 0.0390625C114.636 2.21617 114.675 3.81012 114.596 5.40407C114.557 6.376 114.793 6.72589 115.854 6.76476C119.468 6.84252 119.468 6.8814 119.468 10.3803C119.468 13.335 119.468 13.335 116.561 13.335C115.971 13.335 115.382 13.3738 114.793 13.335C113.693 13.2183 113.496 13.7237 113.496 14.6957C113.536 18.0002 113.496 21.3047 113.536 24.6093C113.536 27.5639 114.518 28.2637 117.464 27.4473C118.093 27.2918 118.682 27.0974 119.468 26.903C119.468 29.2356 119.429 31.4127 119.507 33.6287C119.546 34.5617 119.075 34.8728 118.329 35.106C115.775 35.8058 113.182 36.0391 110.629 35.3393C107.329 34.4451 105.325 31.7237 105.286 28.1082C105.207 23.9872 105.679 19.7885 105.129 15.7065C104.736 12.7907 106.032 11.1579 107.564 9.25289C109.843 6.33712 112.043 3.42135 114.636 0.0390625Z" fill="white"></path>
<path d="M65.843 17.4551C66.8251 18.7769 67.768 19.9044 68.5537 21.1873C69.2216 22.2759 69.6144 22.3536 70.4394 21.2262C73.6216 16.7942 76.9216 12.4789 80.1037 8.04692C80.8108 7.03612 81.5966 6.64735 82.8537 6.68623C85.4466 6.80286 88.0394 6.7251 90.868 6.7251C90.043 8.59119 88.7858 9.91301 87.7251 11.3126C82.068 19.0102 76.3323 26.6301 70.7144 34.3277C69.6537 35.7661 69.2216 35.5329 68.318 34.2499C66.0394 30.9454 63.643 27.6797 61.2466 24.453C60.618 23.5977 60.4216 23.0534 61.3251 22.1981C62.8573 20.7208 64.2716 19.088 65.843 17.4551Z" fill="white"></path>
<path d="M129.25 9.79642C131.568 7.3083 134.122 6.06424 137.422 6.99729C138.325 7.26942 138.757 7.54156 138.718 8.51348C138.639 10.3796 138.718 12.2457 138.718 14.2284C137.893 14.034 137.186 13.7619 136.439 13.6841C132.157 13.2565 129.368 15.7835 129.289 20.1766C129.211 24.8418 129.211 29.507 129.289 34.1722C129.329 35.4552 128.975 35.8828 127.679 35.8051C125.872 35.6884 124.025 35.7273 122.179 35.8051C121.118 35.8439 120.882 35.4552 120.882 34.4832C120.922 25.6971 120.922 16.872 120.882 8.08584C120.882 6.91953 121.314 6.68627 122.375 6.72515C123.868 6.8029 125.4 6.84178 126.893 6.72515C128.582 6.56964 129.564 6.95841 129.132 8.86338C129.054 9.05776 129.172 9.29102 129.25 9.79642Z" fill="white"></path>
<path d="M83.8356 19.3995C84.6606 20.4492 85.3677 21.3434 86.1927 22.3542C89.7284 17.5723 93.2248 12.9071 96.6034 8.16412C97.4284 7.03669 98.2927 6.60904 99.6677 6.64792C102.221 6.76455 104.736 6.6868 107.761 6.6868C100.493 16.5227 93.4213 26.0475 86.1927 35.8056C83.8748 32.5788 81.5963 29.4687 79.3177 26.3585C78.9641 25.892 79.1213 25.5421 79.3963 25.1533C80.8891 23.2872 82.3427 21.3823 83.8356 19.3995Z" fill="white"></path>
</g>
<defs>
<clipPath id="clip0_170_962">
<rect width="176" height="36" fill="white"></rect>
</clipPath>
</defs>
</svg>