<svg width="24" height="27" viewBox="0 0 24 27" fill="none" xmlns="http://www.w3.org/2000/svg">
<g clip-path="url(#clip0_221_2544)">
<path d="M7.0485 24.4683C7.88724 23.9383 8.51999 23.6144 9.31459 24.218C9.93262 24.6891 10.6684 25.013 11.3305 25.4252C11.8014 25.705 12.2281 25.7197 12.699 25.44C15.8186 23.585 18.9381 21.7448 22.0724 19.9192C22.5286 19.6543 22.7051 19.3009 22.6904 18.7709C22.6757 15.2671 22.6904 11.7486 22.661 8.24476C22.661 7.90616 22.3961 7.42033 22.1018 7.24367C18.9676 5.32982 15.7891 3.47486 12.6402 1.59045C12.1987 1.32546 11.7867 1.3549 11.3452 1.6199C8.18154 3.5043 5.01784 5.35927 1.88357 7.25839C1.58927 7.43506 1.29497 7.90616 1.29497 8.23004C1.25083 11.7927 1.25083 15.3407 1.29497 18.9034C1.29497 19.242 1.58927 19.6837 1.88357 19.8898C2.58988 20.3756 3.35506 20.7584 4.12023 21.1706C4.7824 21.5239 5.51815 21.6417 6.1656 21.2884C6.57762 21.0676 6.90135 20.6112 7.12207 20.199C7.28393 19.9045 7.22507 19.4776 7.22507 19.1095C7.22507 15.9885 7.23979 12.8822 7.21036 9.76112C7.21036 9.21641 7.28393 8.90725 7.96082 8.92197C8.62299 8.92197 8.72599 9.20169 8.72599 9.76112C8.71128 12.9263 8.72599 16.0915 8.71128 19.2568C8.71128 20.199 8.6377 21.1264 7.93139 21.8625C6.98964 22.8342 5.16499 23.1581 3.82593 22.5103C2.8106 22.0245 1.83942 21.4356 0.882953 20.8614C0.294357 20.5081 0.0294892 19.9192 0.0294892 19.242C0.0294892 15.4585 0.0147743 11.6897 0.0294892 7.90616C0.0294892 7.17006 0.382647 6.59591 1.01539 6.21314C4.29681 4.25512 7.59295 2.31183 10.8744 0.368535C11.6837 -0.117289 12.5077 -0.0878449 13.317 0.397978C16.5543 2.34127 19.7916 4.28457 23.0289 6.21314C23.7058 6.61063 24.0295 7.21423 24.0295 7.97977C24.0442 11.6897 24.0442 15.3849 24.0442 19.0948C24.0442 19.9781 23.6469 20.6259 22.867 21.0676C19.6886 22.9078 16.5249 24.7775 13.3465 26.6324C12.5372 27.1035 11.7278 27.133 10.9038 26.6766C9.63832 25.97 8.40227 25.2486 7.0485 24.4683Z" fill="#2F3A00"></path>
<path d="M9.90308 15.5907C10.3004 15.5907 10.6241 15.5466 10.9184 15.6054C11.095 15.6496 11.3451 15.841 11.3746 16.0029C11.5511 16.9304 12.1397 17.4015 12.9785 17.6076C14.1998 17.9021 15.4064 17.9021 16.5984 17.4898C17.2752 17.2543 17.7461 16.8274 17.7167 16.0324C17.6725 15.2227 17.0839 14.9871 16.4218 14.8546C15.2593 14.6338 14.0968 14.4571 12.9491 14.2657C12.7283 14.2216 12.5223 14.1774 12.3016 14.1185C10.9331 13.721 10.2562 12.9702 10.2268 11.7925C10.1827 10.5705 10.8743 9.56945 12.1545 9.14252C13.7142 8.61253 15.2887 8.61253 16.8485 9.12779C18.1728 9.56945 18.8497 10.5705 18.8497 12.028C18.423 12.028 17.9963 12.028 17.4665 12.028C17.3488 11.233 16.9662 10.5411 16.0833 10.3203C14.862 10.0258 13.6554 9.96694 12.4929 10.5117C12.0073 10.7472 11.7572 11.1447 11.7866 11.7041C11.816 12.2636 12.1839 12.558 12.6548 12.6611C13.6848 12.8819 14.7296 13.0291 15.7596 13.2205C16.3188 13.3235 16.8779 13.3972 17.4077 13.5591C18.4819 13.883 19.2029 14.5749 19.2765 15.7527C19.35 16.8862 18.9233 17.8284 17.8933 18.3879C16.4953 19.1534 14.9797 19.2565 13.4641 19.0356C12.6989 18.9326 11.919 18.697 11.2421 18.329C10.2268 17.799 9.94722 16.7979 9.90308 15.5907Z" fill="#2F3A00"></path>
</g>
<defs>
<clipPath id="clip0_221_2544">
<rect width="24" height="27" fill="white"></rect>
</clipPath>
</defs>
</svg>