<svg width="40" height="23" viewBox="0 0 40 23" fill="none" xmlns="http://www.w3.org/2000/svg">
<g clip-path="url(#clip0_221_2562)">
<path d="M19.6709 0C24.8947 0.229617 29.908 1.10982 34.3664 3.98003C35.3805 4.63062 36.3181 5.43428 37.1026 6.33361C40.1068 9.70133 39.9729 13.8918 36.8348 17.1448C35.0744 18.9626 32.893 20.2063 30.5585 21.0483C23.0577 23.7271 15.576 23.6889 8.13259 20.7995C6.06603 19.9958 4.17169 18.886 2.60264 17.2787C-0.994698 13.5857 -0.84162 8.97421 2.94707 5.51082C5.87469 2.83195 9.43376 1.51165 13.2224 0.803661C15.3464 0.40183 17.5086 0.248752 19.6709 0ZM19.5943 1.62646C19.5752 1.54992 19.5561 1.45424 19.5561 1.3777C16.8198 1.8178 14.0644 2.10483 11.3855 2.73627C8.2474 3.48253 5.37718 4.86023 3.17668 7.32862C0.727432 10.0649 0.803971 13.3178 3.3489 15.9775C4.87968 17.5849 6.71662 18.7329 8.76404 19.4792C16.2649 22.2729 23.7657 22.2729 31.2091 19.1922C33.314 18.312 35.1892 17.0491 36.586 15.193C38.2316 12.9925 38.2699 10.3328 36.6817 8.09401C35.5336 6.46755 33.9837 5.31947 32.2424 4.401C28.2815 2.35358 23.9953 1.66473 19.5943 1.62646Z" fill="#2F3A00"></path>
<path d="M26.1956 13.949C26.0616 14.6762 25.966 15.3076 25.8512 15.9199C25.545 17.5272 25.4876 17.5655 23.6698 17.2211C23.8994 15.9199 24.129 14.6188 24.3778 13.3176C24.6839 11.6337 24.9901 9.93074 25.3537 8.26601C25.4111 7.97899 25.7555 7.59629 26.0042 7.57716C26.4443 7.51975 26.9227 7.7111 27.5924 7.82591C28.1473 7.73024 28.9701 7.48148 29.7929 7.46235C30.8071 7.44322 31.5151 8.05553 31.936 8.95486C32.778 10.7535 31.936 13.4324 30.2139 14.4083C28.8553 15.1737 27.5159 15.1545 26.1956 13.949ZM30.5392 10.8875C30.4626 10.8301 30.3861 10.7918 30.3096 10.7344C30.3287 9.98814 30.1756 9.31842 29.3911 9.0314C28.6066 8.74438 27.8029 8.87832 27.3437 9.56718C26.961 10.1412 26.6357 10.8683 26.5974 11.5572C26.5783 12.093 26.9036 12.8966 27.3245 13.1071C27.8029 13.3559 28.7405 13.3176 29.1232 12.9923C29.7547 12.4757 30.08 11.6146 30.5392 10.8875Z" fill="#2F3A00"></path>
<path d="M10.6581 8.09445C11.8827 7.25252 13.1265 7.06117 14.2937 7.86483C15.4801 8.66849 15.6714 9.95053 15.4609 11.29C14.9443 14.5046 12.0167 15.9206 9.51001 14.0454C9.37607 14.6959 9.22299 15.2891 9.10818 15.8823C8.80203 17.547 8.78289 17.5662 6.96509 17.2217C7.1373 16.265 7.30951 15.3083 7.50086 14.3515C7.88356 12.3232 8.24712 10.2758 8.66808 8.24753C8.72549 7.97964 9.05078 7.55868 9.24213 7.57781C9.7205 7.59695 10.4476 7.13771 10.6581 8.09445ZM9.68223 11.7875C9.96925 12.2467 10.1415 12.9355 10.5433 13.1078C11.0408 13.3374 11.7871 13.2991 12.3228 13.0886C13.2604 12.7059 13.7579 11.3474 13.5475 10.2184C13.3752 9.24254 12.6673 8.74503 11.6914 8.93638C10.6007 9.12773 9.85444 10.2184 9.68223 11.7875Z" fill="#2F3A00"></path>
<path d="M19.6514 4.95575C19.4601 6.04643 19.2879 7.04144 19.1348 7.95991C19.9385 7.76856 20.723 7.44327 21.5075 7.42413C22.9044 7.38586 23.7463 8.30433 23.5932 9.6629C23.421 11.2128 23.0957 12.7436 22.7896 14.2744C22.7513 14.4466 22.4834 14.6762 22.292 14.6953C21.8711 14.7528 21.4118 14.7145 20.8187 14.7145C21.0866 13.2794 21.3162 11.9399 21.5649 10.6196C21.6797 10.0456 21.8137 9.41415 21.1822 9.08886C20.5125 8.74443 19.7471 8.82097 19.2688 9.41415C18.9052 9.85425 18.6564 10.4474 18.5034 11.0215C18.2737 11.8443 18.1207 12.7053 18.0441 13.5473C17.9676 14.504 17.5466 14.9058 16.5899 14.7336C16.3985 14.6953 16.2263 14.6953 15.9202 14.6762C16.2263 13.0115 16.5133 11.4042 16.8195 9.77771C17.0491 8.49568 17.3553 7.21365 17.5084 5.93162C17.6232 4.95575 18.0824 4.707 18.9435 4.86007C19.1348 4.91748 19.3262 4.93661 19.6514 4.95575Z" fill="#2F3A00"></path>
</g>
<defs>
<clipPath id="clip0_221_2562">
<rect width="39.2837" height="23" fill="white"></rect>
</clipPath>
</defs>
</svg>