<svg width="32" height="22" viewBox="0 0 32 22" fill="none" xmlns="http://www.w3.org/2000/svg">
<path d="M15.7954 -0.000366211C20.1961 -0.0370539 23.9251 2.97155 24.9321 7.36389C25.044 7.88065 25.1375 8.26866 25.8647 8.36096C29.6502 8.8039 32.1487 11.7934 31.9624 15.5768C31.7946 19.0835 28.7367 21.9441 25.0444 21.9811C22.0422 22.018 19.0399 21.9811 16.019 21.9811H7.25439C3.48763 21.9811 0.466584 19.5085 0.0561523 16.0758C-0.3914 12.3292 1.86514 9.20996 5.68799 8.36096C6.13534 8.26868 6.34084 8.10234 6.43408 7.62268C7.32919 3.17469 11.208 0.0365465 15.7954 -0.000366211ZM20.3638 3.19299C17.9582 1.45809 15.3285 1.14382 12.6245 2.36194C9.86474 3.59847 8.33543 5.8135 7.9624 8.78479C7.88781 9.44922 7.73878 9.87385 6.95557 9.91077C3.78556 10.1139 1.56652 12.4026 1.65967 15.2448C1.75291 18.1793 4.10279 20.32 7.27295 20.3385H16.019C19.0026 20.357 21.9866 20.3754 24.9702 20.3385C26.9652 20.3015 28.5686 19.4345 29.6128 17.7369C31.72 14.2856 29.128 10.003 24.9136 9.91077C23.6644 9.89231 23.6643 9.85537 23.5151 8.63733C23.2354 6.38578 22.2098 4.52181 20.3638 3.19299Z" fill="#5E563C"></path>
</svg>