<svg width="25" height="25" viewBox="0 0 25 25" fill="none" xmlns="http://www.w3.org/2000/svg">
<g clip-path="url(#clip0_213_2168)">
<path d="M5.84775 5.37338C5.57157 3.81608 5.75169 2.4371 6.84439 1.31965C7.60087 0.546941 8.51346 0.0952054 9.59415 0.011991C11.0831 -0.094999 12.3559 0.332961 13.3646 1.45041C14.3732 2.56786 14.4212 3.91118 14.2171 5.37338C15.2858 5.37338 16.2824 5.36149 17.2791 5.37338C18.9842 5.38527 19.9568 6.34818 19.9808 8.02435C19.9928 9.02293 19.9808 10.0334 19.9808 11.1152C21.6138 10.8893 22.9827 11.2459 24.0394 12.4823C24.7719 13.3501 25.048 14.3487 24.988 15.4661C24.8439 17.915 23.1748 19.187 19.9928 19.1989C19.9928 19.7576 19.9928 20.3282 19.9928 20.8869C19.9928 21.4813 20.0168 22.0757 19.9568 22.6701C19.8247 23.9659 18.768 24.9288 17.4592 24.9526C16.1023 24.9763 14.7334 24.9644 13.3766 24.9526C12.5721 24.9407 12.2599 24.5721 12.3319 23.7757C12.3559 23.4428 12.4039 23.0981 12.3679 22.7771C12.2238 21.5051 11.1431 20.6254 9.88233 20.7205C8.60952 20.8156 7.6489 21.8261 7.66091 23.0862C7.66091 23.3239 7.70894 23.5617 7.74496 23.7875C7.84103 24.477 7.51682 24.9288 6.80836 24.9407C5.34343 24.9763 3.87849 25.012 2.42556 24.9288C1.02066 24.8574 0.0840609 23.8351 0.0360301 22.4205C-0.0120006 21.0771 0.0120148 19.7219 0.0360301 18.3786C0.0480378 17.7129 0.444291 17.4038 1.14074 17.4395C1.59703 17.4632 2.06533 17.5465 2.50961 17.4632C3.7344 17.2255 4.53891 16.0843 4.40683 14.8717C4.26274 13.5878 3.27811 12.6963 1.98128 12.7081C1.65707 12.7081 1.34487 12.7676 1.02066 12.7795C0.444291 12.8032 0.0480378 12.4823 0.0360301 11.8998C0.0120148 10.5446 -0.0240083 9.12992 0.0360301 7.72716C0.0960686 6.33629 1.15274 5.39715 2.55764 5.37338C3.62633 5.36149 4.70702 5.37338 5.84775 5.37338ZM5.94381 23.3239C6.0879 20.5541 8.02114 19.1751 9.90635 19.1038C10.7949 19.0681 11.6114 19.3059 12.3199 19.8289C13.4846 20.6967 14.073 21.8498 14.025 23.3358C15.0697 23.3358 16.0423 23.3358 17.0269 23.3358C17.9995 23.3358 18.3477 22.9792 18.3598 22.0044C18.3718 20.8513 18.3477 19.71 18.3598 18.5569C18.3718 17.7604 18.732 17.4395 19.5365 17.4989C19.9328 17.5227 20.329 17.6178 20.7253 17.6297C22.2743 17.6891 23.391 16.6192 23.379 15.1332C23.367 13.671 22.1782 12.6011 20.6532 12.6963C20.269 12.72 19.8967 12.7676 19.5125 12.7914C18.684 12.8389 18.3838 12.5536 18.3718 11.7215C18.3598 10.5565 18.3718 9.37956 18.3598 8.21456C18.3477 7.31109 18.0235 7.002 17.123 6.99012C15.9222 6.97823 14.7214 6.99012 13.5207 6.97823C12.5721 6.96634 12.2599 6.58593 12.428 5.68246C12.5 5.29016 12.5841 4.90976 12.6441 4.51746C12.8482 3.17414 11.8516 1.87837 10.4947 1.70006C8.84967 1.49796 7.54083 2.40143 7.43276 3.87552C7.39674 4.39858 7.48079 4.94542 7.57686 5.45659C7.805 6.6216 7.51682 6.99012 6.31605 6.99012C5.1393 6.99012 3.95054 6.97823 2.77378 7.00201C2.12537 7.01389 1.69309 7.32298 1.66908 7.86981C1.63305 8.92783 1.65707 9.99773 1.65707 11.0557C4.59895 11.5194 6.00385 12.8627 6.00385 15.1689C6.00385 17.487 4.62297 18.7947 1.65707 19.2583C1.65707 20.3282 1.63305 21.4219 1.66908 22.5037C1.69309 22.9911 2.06533 23.312 2.54564 23.3239C3.67436 23.3477 4.79107 23.3239 5.94381 23.3239Z" fill="#5E563C"></path>
</g>
<defs>
<clipPath id="clip0_213_2168">
<rect width="25" height="25" fill="white"></rect>
</clipPath>
</defs>
</svg>