<svg width="29" height="25" viewBox="0 0 29 25" fill="none" xmlns="http://www.w3.org/2000/svg">
<g clip-path="url(#clip0_212_1831)">
<path d="M14.4952 21.9367C13.2314 23.0396 11.9676 24.0389 10.4262 24.6328C9.64109 24.9344 8.82729 25.0947 7.99434 24.9344C6.5295 24.6516 5.91676 23.5864 5.61038 22.2949C5.24657 20.7678 5.40933 19.2406 5.73485 17.7229C5.76357 17.6004 5.78272 17.4778 5.82102 17.3175C5.39975 17.1667 4.98807 17.0253 4.57638 16.8745C3.33174 16.4126 2.14455 15.847 1.15842 14.942C-0.363864 13.5374 -0.392587 11.6803 1.07225 10.2191C2.19243 9.10676 3.59025 8.5223 5.04551 8.01325C5.29444 7.92841 5.55294 7.84356 5.80187 7.75872C5.68698 6.98572 5.54337 6.25043 5.46677 5.50571C5.35188 4.46875 5.38061 3.44123 5.6774 2.42313C6.271 0.415209 7.72626 -0.386073 9.79427 0.160684C11.441 0.594319 12.7622 1.57471 14.0165 2.64937C14.1601 2.77192 14.3037 2.9039 14.476 3.05473C14.926 2.67765 15.3664 2.29115 15.826 1.94236C16.7738 1.21649 17.7887 0.594319 18.9376 0.236099C21.2449 -0.480342 22.9204 0.490623 23.4182 2.81905C23.7246 4.28022 23.5523 5.72252 23.2842 7.16483C23.2459 7.34394 23.2172 7.53248 23.1789 7.73987C23.7916 7.96611 24.3852 8.16408 24.9692 8.39975C26.0703 8.84281 27.0947 9.39899 27.9468 10.238C29.335 11.5954 29.3542 13.4243 27.9755 14.8006C26.8266 15.9412 25.3714 16.5728 23.8491 17.0724C23.6384 17.1384 23.4374 17.2139 23.2363 17.2893C23.3512 18.166 23.4948 19.0238 23.5714 19.8722C23.6672 20.9752 23.5619 22.0687 23.1214 23.1056C22.5087 24.5762 21.2449 25.2361 19.6556 24.925C17.9801 24.5951 16.6206 23.6712 15.3281 22.6249C15.0505 22.4175 14.7824 22.1818 14.4952 21.9367ZM14.476 17.0536C15.2611 17.0442 16.0366 17.063 16.8217 17.0347C16.994 17.0253 17.2429 16.931 17.3291 16.7896C18.1812 15.4699 19.0141 14.1313 19.8375 12.7832C19.9237 12.6418 19.9237 12.3779 19.8471 12.2365C19.0524 10.8979 18.2482 9.55925 17.4248 8.23949C17.3483 8.11694 17.1568 8.01325 17.0132 8.00382C15.3568 7.98497 13.7005 7.98497 12.0442 8.00382C11.9102 8.00382 11.7282 8.09809 11.6612 8.20178C10.8187 9.54982 9.98576 10.8979 9.16238 12.2648C9.08579 12.3873 9.10494 12.6418 9.18153 12.7738C10.0049 14.1124 10.8379 15.451 11.6899 16.7708C11.7857 16.9122 12.0442 17.0253 12.2357 17.0347C12.9729 17.0724 13.7292 17.0536 14.476 17.0536ZM13.5856 3.87486C13.375 3.68632 13.1452 3.46951 12.8963 3.28097C11.7857 2.40427 10.6464 1.57471 9.20068 1.31076C7.99434 1.08451 7.22841 1.52758 6.86459 2.67765C6.54865 3.68632 6.58694 4.72328 6.71141 5.76023C6.77843 6.32584 6.90289 6.88203 6.99863 7.39108C8.38688 7.21197 9.68896 7.04228 10.9719 6.86317C11.0868 6.84432 11.2208 6.77833 11.2878 6.69349C12.0538 5.76023 12.8101 4.82697 13.5856 3.87486ZM15.3951 3.88429C16.0174 4.61016 16.6493 5.27946 17.1951 6.01476C17.6068 6.58037 18.028 6.91973 18.7939 6.95744C19.8471 7.014 20.8907 7.24025 22.03 7.40993C22.1353 6.67463 22.2789 5.92991 22.3364 5.19462C22.413 4.28964 22.3938 3.37524 22.0587 2.49854C21.6758 1.48987 20.9002 1.06566 19.8375 1.28248C18.0472 1.6407 16.7068 2.73421 15.3951 3.88429ZM6.99863 17.6192C6.65396 19.1652 6.43376 20.6829 6.85502 22.2101C7.19969 23.5016 8.02306 23.9823 9.33472 23.6807C11.0485 23.2753 12.3697 22.2195 13.6335 21.0977C13.1165 20.485 12.5708 19.9476 12.1495 19.3255C11.6038 18.5242 11.0006 17.9303 9.93789 18.0717C9.89002 18.0811 9.84214 18.0528 9.79427 18.0434C8.87516 17.9114 7.96562 17.77 6.99863 17.6192ZM15.376 21.1448C15.9217 21.5691 16.4579 22.0121 17.0227 22.4175C17.8557 23.0019 18.7365 23.5016 19.7514 23.7089C20.8524 23.9352 21.5896 23.5675 22.0013 22.5494C22.3938 21.5785 22.413 20.5604 22.2981 19.5329C22.2311 18.8918 22.1066 18.2508 22.0108 17.6475C20.5843 17.836 19.2439 18.0151 17.9036 18.1942C17.7982 18.2131 17.6833 18.3074 17.6068 18.3922C16.8887 19.2878 16.1611 20.1833 15.376 21.1448ZM22.8821 16.1015C23.1597 16.0166 23.4661 15.9318 23.7533 15.8281C25.0075 15.3662 26.2426 14.8571 27.1904 13.8673C27.9564 13.066 28.033 12.1705 27.3149 11.3315C26.1373 9.9646 24.481 9.46498 22.8629 8.94651C22.3651 10.106 21.896 11.1995 21.4364 12.293C21.3885 12.3967 21.3694 12.5476 21.4173 12.6513C21.896 13.7919 22.3747 14.9231 22.8821 16.1015ZM6.12739 8.94651C4.66255 9.38957 3.236 9.90804 2.05839 10.9261C0.928642 11.9065 0.890345 13.0283 1.97222 14.0464C3.14984 15.1399 4.63382 15.6396 6.09866 16.1109C6.61567 14.9231 7.10395 13.7919 7.59223 12.6513C7.63052 12.5664 7.61138 12.4344 7.57308 12.3402C7.11352 11.2184 6.63482 10.1154 6.12739 8.94651ZM8.32943 13.8013C7.97519 14.7252 7.65925 15.5453 7.31458 16.4503C8.33901 16.6011 9.24855 16.7425 10.2538 16.8933C9.59322 15.8281 8.99962 14.876 8.32943 13.8013ZM20.6609 13.8202C19.9907 14.9043 19.3971 15.8564 18.7461 16.9122C19.7705 16.7425 20.68 16.5917 21.6758 16.4314C21.3311 15.5359 21.0151 14.7252 20.6609 13.8202ZM8.32943 11.1995C8.9709 10.1437 9.5645 9.1916 10.2251 8.11694C9.21983 8.28663 8.31986 8.44688 7.3433 8.60714C7.67839 9.49326 7.98477 10.304 8.32943 11.1995ZM21.6566 8.60714C20.6992 8.44688 19.8184 8.29605 18.8131 8.12637C19.4641 9.20103 20.0386 10.1531 20.6705 11.1901C21.0247 10.2757 21.3215 9.47441 21.6566 8.60714ZM12.7814 18.3168C13.3941 19.005 13.9207 19.6177 14.5047 20.2776C15.0888 19.6083 15.6153 19.005 16.2089 18.3168C15.0217 18.3168 13.9782 18.3168 12.7814 18.3168ZM16.2472 6.67464C15.6345 5.98648 15.0792 5.38316 14.4952 4.72328C13.9111 5.39258 13.3846 6.00533 12.8005 6.67464C13.9782 6.67464 15.0505 6.67464 16.2472 6.67464Z" fill="#596C01"></path>
<path d="M14.5048 15.083C13.0591 15.083 11.8623 13.9423 11.8528 12.5377C11.8336 11.1237 13.0495 9.92647 14.4952 9.91705C15.9409 9.90762 17.1472 11.1048 17.1377 12.5283C17.1281 13.9517 15.9696 15.083 14.5048 15.083Z" fill="#596C01"></path>
</g>
<defs>
<clipPath id="clip0_212_1831">
<rect width="29" height="25" fill="white"></rect>
</clipPath>
</defs>
</svg>