<svg width="166" height="272" viewBox="0 0 166 272" fill="none" xmlns="http://www.w3.org/2000/svg">
<path d="M80.3359 1.5L79.9756 3.29492L31.2051 246.61C30.7225 249.053 30.5117 250.627 30.5117 251.438C30.5117 253.284 30.967 254.393 31.6143 255.049C32.258 255.701 33.3423 256.157 35.1533 256.157C35.8036 256.157 37.1241 255.954 39.2402 255.464C41.3102 254.985 44.0211 254.262 47.3809 253.29L49.7832 252.595L49.2656 255.041L48.1807 260.163L48.0713 260.684L47.6582 261.019C43.8919 264.07 39.5123 266.347 34.54 267.862C29.6011 269.61 24.8652 270.5 20.3408 270.5C15.0669 270.5 10.549 269.354 6.87793 266.964L6.85645 266.95L6.83496 266.936C3.21621 264.398 1.5 260.468 1.5 255.462C1.50002 253.947 1.62299 252.614 1.89453 251.49L47.0498 27.584L47.0889 27.3926L47.1748 27.2168C47.2622 27.0396 47.3809 26.5847 47.3809 25.6846C47.3808 24.5458 47.045 23.9327 46.582 23.5576C46.0586 23.1336 45.1046 22.7939 43.4619 22.7939C42.5885 22.794 41.243 23.0235 39.3574 23.5605C37.4956 24.0909 35.1974 24.8943 32.4541 25.9814L30.6143 26.7109L30.4092 24.7422L29.6865 17.791L29.5664 16.6309L30.6602 16.2275L70.4004 1.59277L70.6514 1.5H80.3359Z" fill="#2F2F2F" stroke="#2F2F2F" stroke-width="3"></path>
<path d="M164.154 1.5L163.793 3.29492L115.022 246.61C114.54 249.053 114.329 250.627 114.329 251.438C114.329 253.284 114.785 254.393 115.432 255.049C116.076 255.701 117.16 256.157 118.97 256.157C119.621 256.157 120.942 255.954 123.058 255.464C125.128 254.985 127.838 254.262 131.198 253.29L133.6 252.595L133.083 255.041L131.999 260.163L131.889 260.684L131.476 261.019C127.71 264.07 123.33 266.347 118.358 267.862C113.419 269.61 108.683 270.5 104.159 270.5C98.8848 270.5 94.3668 269.354 90.6958 266.964L90.6743 266.95L90.6528 266.936C87.0336 264.398 85.3179 260.468 85.3179 255.462C85.3179 253.955 85.4393 252.627 85.7085 251.507L130.868 27.584L130.906 27.3916L130.993 27.2158C131.08 27.0391 131.199 26.5849 131.199 25.6846C131.199 24.5459 130.863 23.9328 130.4 23.5576C129.876 23.1335 128.923 22.7939 127.28 22.7939C126.406 22.7939 125.061 23.0234 123.175 23.5605C121.314 24.0909 119.015 24.8943 116.272 25.9814L114.432 26.7109L114.227 24.7422L113.504 17.791L113.384 16.6309L114.478 16.2275L154.218 1.59277L154.469 1.5H164.154Z" fill="#2F2F2F" stroke="#2F2F2F" stroke-width="3"></path>
</svg>