<svg width="24" height="25" viewBox="0 0 24 25" fill="none" xmlns="http://www.w3.org/2000/svg">
<g clip-path="url(#clip0_212_1835)">
<path d="M11.9115 0C15.503 0 19.0845 0 22.6761 0C23.5513 0 23.7827 0.241449 23.6821 1.12676C23.2193 5.18109 22.8068 9.24547 22.2736 13.2897C21.9316 15.9054 21.4386 18.5111 20.9557 21.1066C20.8954 21.4185 20.5433 21.8008 20.2415 21.9215C17.7264 22.9175 15.1811 23.8632 12.6559 24.829C12.1127 25.0402 11.5795 25.0503 11.0362 24.839C8.50101 23.8732 5.97586 22.9175 3.44065 21.9417C2.98793 21.7706 2.73642 21.4286 2.65594 20.9256C2.0825 17.0423 1.43863 13.1388 0.905435 9.22535C0.533202 6.45875 0.301814 3.67203 0.0100631 0.895372C-0.0502991 0.342052 0.281693 0.0100604 0.905435 0.0100604C2.49497 0 4.08451 0 5.68411 0C7.75654 0 9.83904 0 11.9115 0ZM1.38833 1.35815C1.62978 3.69215 1.81087 5.98592 2.11268 8.2495C2.666 12.2938 3.2998 16.328 3.91348 20.3622C3.94366 20.5332 4.10463 20.7746 4.2656 20.835C6.6499 21.7606 9.04427 22.6761 11.4386 23.5614C11.6901 23.6519 12.0423 23.6419 12.3038 23.5513C14.668 22.6761 17.0322 21.7706 19.3763 20.8551C19.5473 20.7847 19.7183 20.5533 19.7586 20.3622C19.8793 19.829 19.9497 19.2757 20.0302 18.7324C20.4527 16.0362 20.9155 13.3501 21.2877 10.6539C21.5996 8.38028 21.8109 6.09658 22.0624 3.82294C22.1529 3.01811 22.2133 2.20322 22.2938 1.36821C15.3018 1.35815 8.37022 1.35815 1.38833 1.35815Z" fill="#596C01"></path>
<path d="M12.5955 10.6837C13.7122 10.6837 14.8289 10.6837 15.9456 10.6837C16.7303 10.6837 16.9718 10.9554 16.9014 11.7199C16.7605 13.1988 16.6096 14.6877 16.4788 16.1666C16.4285 16.7803 16.1368 17.2028 15.5835 17.4443C14.5372 17.8869 13.4909 18.3296 12.4446 18.7823C12.0321 18.9634 11.6398 18.9634 11.2374 18.7823C10.1609 18.3095 9.08446 17.8568 8.01806 17.3839C7.60559 17.2028 7.34402 16.901 7.29372 16.4382C7.28366 16.3578 7.24342 16.2773 7.23336 16.1968C7.06233 14.9594 6.81082 15.1002 8.17903 14.7783C8.55126 14.6877 8.76253 14.7883 8.75247 15.1606C8.72229 15.8346 9.15488 16.0761 9.67802 16.2873C10.3018 16.5389 10.8953 16.8306 11.5291 17.0721C11.7303 17.1425 12.002 17.1425 12.1931 17.0721C12.9678 16.7702 13.7424 16.4382 14.4969 16.0761C14.668 15.9956 14.849 15.7541 14.8692 15.5731C15.01 14.5268 15.0905 13.4805 15.2012 12.394C14.8692 12.3739 14.5975 12.3437 14.336 12.3437C12.8571 12.3135 11.3883 12.2733 9.90941 12.2632C9.46676 12.2632 9.30579 12.1123 9.27561 11.6495C9.23537 11.0358 9.41645 10.6334 9.91947 10.2511C11.0563 9.396 12.1529 8.4805 13.2595 7.58513C13.3601 7.50465 13.4507 7.4141 13.6519 7.22296C13.1891 7.22296 12.8571 7.22296 12.5251 7.22296C10.835 7.23302 9.14482 7.23302 7.44462 7.24308C6.82088 7.24308 6.78064 7.20284 6.7907 6.59921C6.80076 5.5127 6.56937 5.5127 7.86716 5.5127C10.6136 5.5127 13.3601 5.5127 16.1167 5.5127C16.9014 5.5127 16.8712 5.52276 16.9215 6.28734C16.9617 6.87084 16.7404 7.24308 16.2776 7.58513C15.01 8.52074 13.7927 9.50666 12.5452 10.4825C12.5653 10.5429 12.5754 10.6133 12.5955 10.6837Z" fill="#596C01"></path>
</g>
<defs>
<clipPath id="clip0_212_1835">
<rect width="23.7022" height="25" fill="white"></rect>
</clipPath>
</defs>
</svg>